<svg width="141" height="40" viewBox="0 0 141 40" fill="none" xmlns="http://www.w3.org/2000/svg">
<path d="M17.4601 1.38955L0 37.8183H10.4543L23.1587 11.0087L28.3187 22.8911H21.6094L17.9719 30.9745H32.4411L35.6745 37.8183H46.8295L28.7227 1.38955H17.4601Z" fill="white"/>
<path d="M50.0025 37.8184H59.487V9.78259L50.0025 16.2492V37.8184Z" fill="white"/>
<path d="M99.039 12.8085C99.039 1.91846 86.0488 1.38949 86.0488 1.38949H63.7144V37.8174H73.2005V26.9558H82.3373L90.2516 37.8174H101.626C101.626 37.8174 93.9739 27.8181 91.9216 24.4778C96.1791 22.0545 99.039 19.3254 99.039 12.8085ZM87.8827 17.0984C86.9768 17.9936 85.7433 18.5503 84.3677 18.5503H73.2006V8.92803H84.3677C87.1078 8.92803 89.3346 10.8325 89.3346 13.5834C89.3346 14.959 88.7779 16.1925 87.8827 17.0984Z" fill="white"/>
<path d="M50.0025 11.5928L59.487 5.28794V1.38949H50.0025V11.5928Z" fill="white"/>
<path d="M110.886 24.0178C110.274 25.1732 105.602 28.3937 102.638 22.3503C99.6746 16.307 103.838 12.1051 107.189 14.5553C110.539 17.0056 112.521 20.9285 110.886 24.0178Z" fill="white"/>
<path d="M110.42 13.6261C112.031 16.1717 119.292 18.5945 118.57 9.30031C117.847 0.0060997 108.458 -0.270439 108.107 5.97397C107.915 9.37927 109.525 12.2121 110.42 13.6261Z" fill="white"/>
<path d="M121.392 7.61998C121.38 9.95947 122.558 14.5544 126.722 14.2681C130.886 13.9818 132.91 8.8182 129.886 2.24396C127.604 -2.65199 121.476 1.06286 121.392 7.61998Z" fill="white"/>
<path d="M132.105 18.3604C131.378 13.0492 135.284 6.07524 139.756 10.2415C141.852 12.1439 141.167 17.156 138.689 20.0385C136.212 22.9211 132.444 20.8283 132.105 18.3604Z" fill="white"/>
<path d="M124.474 37.4205C120.393 38.054 117.921 41.6483 113.298 38.7354C108.675 35.8226 108.525 30.0251 113.51 25.4107C115.586 23.7081 114.356 17.8082 121.248 16.6481" fill="white"/>
<path d="M124.474 37.4205C128.554 36.7871 132 39.4626 135.522 35.2853C139.044 31.108 137.429 25.5378 131.28 22.6518C128.786 21.6589 128.169 15.6637 121.248 16.6481" fill="white"/>
</svg>
