<svg width="450" height="227" viewBox="0 0 450 227" fill="none" xmlns="http://www.w3.org/2000/svg">
<g filter="url(#filter0_f_80_6543)" style="mix-blend-mode:plus-lighter">
<path d="M312.803 203.236L293.34 203.236L239 21.6861L367.138 21.6861L312.803 203.236Z" fill="url(#paint0_linear_80_6543)"/>
</g>
<rect x="349.898" y="2.58386" width="98.3139" height="29.9791" rx="14.9896" fill="#070509" fill-opacity="0.5" stroke="url(#paint1_linear_80_6543)" stroke-width="2.20435"/>
<path d="M374.182 13.6561L371.522 20.7397H370.176L367.506 13.6561H368.749L370.849 19.5473L372.959 13.6561H374.182ZM375.745 14.3798C375.534 14.3798 375.357 14.3084 375.215 14.1657C375.072 14.023 375.001 13.8464 375.001 13.6357C375.001 13.4251 375.072 13.2484 375.215 13.1057C375.357 12.963 375.534 12.8917 375.745 12.8917C375.948 12.8917 376.122 12.963 376.264 13.1057C376.407 13.2484 376.478 13.4251 376.478 13.6357C376.478 13.8464 376.407 14.023 376.264 14.1657C376.122 14.3084 375.948 14.3798 375.745 14.3798ZM376.315 15.1238V20.7397H375.153V15.1238H376.315ZM382.988 17.7942C382.988 18.0048 382.974 18.1951 382.947 18.3649H378.656C378.69 18.8134 378.857 19.1735 379.156 19.4453C379.455 19.7171 379.822 19.853 380.256 19.853C380.882 19.853 381.323 19.5914 381.581 19.0682H382.835C382.665 19.5846 382.356 20.0093 381.908 20.3422C381.466 20.6684 380.915 20.8315 380.256 20.8315C379.72 20.8315 379.237 20.7126 378.809 20.4747C378.388 20.2301 378.055 19.8904 377.81 19.4555C377.572 19.0139 377.454 18.5042 377.454 17.9267C377.454 17.3491 377.569 16.8429 377.8 16.408C378.038 15.9664 378.367 15.6266 378.789 15.3888C379.217 15.151 379.706 15.0321 380.256 15.0321C380.786 15.0321 381.259 15.1476 381.673 15.3786C382.088 15.6096 382.41 15.9358 382.641 16.3571C382.872 16.7716 382.988 17.2506 382.988 17.7942ZM381.775 17.4273C381.768 16.9992 381.615 16.656 381.316 16.3978C381.017 16.1396 380.647 16.0105 380.205 16.0105C379.805 16.0105 379.461 16.1396 379.176 16.3978C378.891 16.6493 378.721 16.9924 378.666 17.4273H381.775ZM391.674 15.1238L389.931 20.7397H388.708L387.576 16.5915L386.445 20.7397H385.222L383.469 15.1238H384.651L385.823 19.639L387.016 15.1238H388.229L389.37 19.6186L390.532 15.1238H391.674ZM394.802 17.9063C394.802 17.3423 394.918 16.8429 395.149 16.408C395.387 15.9732 395.706 15.6368 396.107 15.399C396.515 15.1544 396.966 15.0321 397.462 15.0321C397.829 15.0321 398.189 15.1136 398.543 15.2767C398.903 15.433 399.188 15.6436 399.399 15.9086V13.1975H400.571V20.7397H399.399V19.8938C399.209 20.1656 398.944 20.3898 398.604 20.5665C398.271 20.7431 397.887 20.8315 397.452 20.8315C396.963 20.8315 396.515 20.7092 396.107 20.4646C395.706 20.2131 395.387 19.8666 395.149 19.4249C394.918 18.9765 394.802 18.4703 394.802 17.9063ZM399.399 17.9267C399.399 17.5394 399.317 17.203 399.154 16.9176C398.998 16.6323 398.791 16.4148 398.533 16.2653C398.274 16.1159 397.996 16.0411 397.697 16.0411C397.398 16.0411 397.119 16.1159 396.861 16.2653C396.603 16.408 396.392 16.6221 396.229 16.9075C396.073 17.186 395.995 17.519 395.995 17.9063C395.995 18.2936 396.073 18.6333 396.229 18.9255C396.392 19.2177 396.603 19.4419 396.861 19.5982C397.126 19.7477 397.405 19.8224 397.697 19.8224C397.996 19.8224 398.274 19.7477 398.533 19.5982C398.791 19.4487 398.998 19.2313 399.154 18.9459C399.317 18.6537 399.399 18.314 399.399 17.9267ZM407.244 17.7942C407.244 18.0048 407.231 18.1951 407.204 18.3649H402.913C402.947 18.8134 403.113 19.1735 403.412 19.4453C403.711 19.7171 404.078 19.853 404.513 19.853C405.138 19.853 405.58 19.5914 405.838 19.0682H407.091C406.922 19.5846 406.612 20.0093 406.164 20.3422C405.722 20.6684 405.172 20.8315 404.513 20.8315C403.976 20.8315 403.494 20.7126 403.065 20.4747C402.644 20.2301 402.311 19.8904 402.067 19.4555C401.829 19.0139 401.71 18.5042 401.71 17.9267C401.71 17.3491 401.825 16.8429 402.056 16.408C402.294 15.9664 402.624 15.6266 403.045 15.3888C403.473 15.151 403.962 15.0321 404.513 15.0321C405.043 15.0321 405.515 15.1476 405.93 15.3786C406.344 15.6096 406.667 15.9358 406.898 16.3571C407.129 16.7716 407.244 17.2506 407.244 17.7942ZM406.031 17.4273C406.025 16.9992 405.872 16.656 405.573 16.3978C405.274 16.1396 404.903 16.0105 404.462 16.0105C404.061 16.0105 403.718 16.1396 403.432 16.3978C403.147 16.6493 402.977 16.9924 402.923 17.4273H406.031ZM409.743 16.0717V19.1803C409.743 19.391 409.791 19.5439 409.886 19.639C409.988 19.7273 410.158 19.7715 410.396 19.7715H411.109V20.7397H410.192C409.669 20.7397 409.268 20.6174 408.989 20.3728C408.711 20.1282 408.571 19.7307 408.571 19.1803V16.0717H407.909V15.1238H408.571V13.7275H409.743V15.1238H411.109V16.0717H409.743ZM411.793 17.9063C411.793 17.3423 411.908 16.8429 412.139 16.408C412.377 15.9732 412.696 15.6368 413.097 15.399C413.505 15.1544 413.953 15.0321 414.443 15.0321C414.884 15.0321 415.268 15.1204 415.594 15.2971C415.927 15.4669 416.192 15.681 416.389 15.9392V15.1238H417.562V20.7397H416.389V19.904C416.192 20.169 415.924 20.3898 415.584 20.5665C415.244 20.7431 414.857 20.8315 414.422 20.8315C413.94 20.8315 413.498 20.7092 413.097 20.4646C412.696 20.2131 412.377 19.8666 412.139 19.4249C411.908 18.9765 411.793 18.4703 411.793 17.9063ZM416.389 17.9267C416.389 17.5394 416.308 17.203 416.145 16.9176C415.988 16.6323 415.781 16.4148 415.523 16.2653C415.265 16.1159 414.986 16.0411 414.687 16.0411C414.388 16.0411 414.11 16.1159 413.852 16.2653C413.593 16.408 413.383 16.6221 413.22 16.9075C413.063 17.186 412.985 17.519 412.985 17.9063C412.985 18.2936 413.063 18.6333 413.22 18.9255C413.383 19.2177 413.593 19.4419 413.852 19.5982C414.117 19.7477 414.395 19.8224 414.687 19.8224C414.986 19.8224 415.265 19.7477 415.523 19.5982C415.781 19.4487 415.988 19.2313 416.145 18.9459C416.308 18.6537 416.389 18.314 416.389 17.9267ZM419.679 14.3798C419.468 14.3798 419.291 14.3084 419.149 14.1657C419.006 14.023 418.935 13.8464 418.935 13.6357C418.935 13.4251 419.006 13.2484 419.149 13.1057C419.291 12.963 419.468 12.8917 419.679 12.8917C419.883 12.8917 420.056 12.963 420.199 13.1057C420.341 13.2484 420.413 13.4251 420.413 13.6357C420.413 13.8464 420.341 14.023 420.199 14.1657C420.056 14.3084 419.883 14.3798 419.679 14.3798ZM420.25 15.1238V20.7397H419.088V15.1238H420.25ZM422.937 13.1975V20.7397H421.775V13.1975H422.937ZM426.501 20.8315C426.059 20.8315 425.662 20.7533 425.308 20.5971C424.962 20.434 424.687 20.2165 424.483 19.9447C424.279 19.6662 424.17 19.357 424.157 19.0173H425.359C425.38 19.2551 425.492 19.4555 425.696 19.6186C425.906 19.7749 426.168 19.853 426.481 19.853C426.807 19.853 427.058 19.7919 427.235 19.6696C427.418 19.5405 427.51 19.3774 427.51 19.1803C427.51 18.9697 427.408 18.8134 427.204 18.7115C427.007 18.6096 426.691 18.4974 426.256 18.3751C425.835 18.2596 425.492 18.1475 425.227 18.0388C424.962 17.9301 424.731 17.7636 424.534 17.5394C424.344 17.3151 424.248 17.0196 424.248 16.6526C424.248 16.3537 424.337 16.0819 424.513 15.8373C424.69 15.5859 424.941 15.3888 425.268 15.2461C425.601 15.1034 425.981 15.0321 426.409 15.0321C427.048 15.0321 427.561 15.1952 427.948 15.5213C428.342 15.8407 428.553 16.2789 428.58 16.8361H427.418C427.398 16.5847 427.296 16.3843 427.112 16.2348C426.929 16.0853 426.681 16.0105 426.368 16.0105C426.063 16.0105 425.828 16.0683 425.665 16.1838C425.502 16.2993 425.421 16.4522 425.421 16.6425C425.421 16.7919 425.475 16.9176 425.584 17.0196C425.692 17.1215 425.825 17.203 425.981 17.2642C426.137 17.3185 426.368 17.3899 426.674 17.4782C427.082 17.5869 427.415 17.6991 427.673 17.8146C427.938 17.9233 428.166 18.0864 428.356 18.3038C428.546 18.5212 428.645 18.81 428.651 19.1701C428.651 19.4895 428.563 19.7749 428.386 20.0263C428.21 20.2777 427.958 20.4747 427.632 20.6174C427.313 20.7601 426.936 20.8315 426.501 20.8315Z" fill="white"/>
<path d="M8.81888 8.71507V25.5217H5.65609V8.71507H8.81888ZM14.0363 8.71507V11.2199H0.496351V8.71507H14.0363ZM18.9075 7.79162V25.5217H15.8486V7.79162H18.9075ZM18.4227 18.8268H17.5223C17.5223 17.9572 17.6378 17.1569 17.8686 16.4258C18.0995 15.6948 18.4265 15.0599 18.8498 14.5212C19.273 13.9748 19.7771 13.5516 20.3619 13.2515C20.9545 12.9514 21.6086 12.8013 22.3242 12.8013C22.9399 12.8013 23.4978 12.8898 23.998 13.0668C24.5059 13.2361 24.9407 13.5093 25.3023 13.8863C25.664 14.2634 25.9411 14.7559 26.1334 15.3639C26.3335 15.9641 26.4336 16.6952 26.4336 17.557V25.5217H23.3631V17.5339C23.3631 16.9568 23.2785 16.5028 23.1092 16.1719C22.9399 15.8333 22.6975 15.5909 22.3819 15.4447C22.0741 15.2984 21.6932 15.2253 21.2392 15.2253C20.7467 15.2253 20.3234 15.3215 19.9695 15.5139C19.6155 15.6986 19.323 15.9564 19.0922 16.2873C18.869 16.6182 18.6997 16.9991 18.5843 17.4301C18.4766 17.861 18.4227 18.3266 18.4227 18.8268ZM34.733 25.7526C33.7865 25.7526 32.9361 25.5987 32.182 25.2909C31.4278 24.9831 30.7853 24.556 30.2543 24.0096C29.731 23.4555 29.327 22.813 29.0423 22.0819C28.7652 21.3431 28.6267 20.5505 28.6267 19.704V19.2423C28.6267 18.2804 28.7652 17.407 29.0423 16.622C29.3193 15.8294 29.7118 15.1484 30.2197 14.5789C30.7276 14.0095 31.3355 13.5708 32.0435 13.263C32.7514 12.9552 33.5325 12.8013 34.3867 12.8013C35.2717 12.8013 36.0528 12.9514 36.7299 13.2515C37.4071 13.5439 37.9727 13.9595 38.4268 14.4981C38.8808 15.0368 39.2232 15.6832 39.4541 16.4374C39.685 17.1838 39.8004 18.0111 39.8004 18.9191V20.2004H30.0119V18.0996H36.7992V17.8687C36.7838 17.3839 36.6915 16.9414 36.5222 16.5412C36.3529 16.1334 36.0912 15.8102 35.7372 15.5716C35.3833 15.3254 34.9254 15.2023 34.3636 15.2023C33.9096 15.2023 33.5133 15.3023 33.1747 15.5024C32.8438 15.6948 32.5668 15.9718 32.3436 16.3335C32.1281 16.6875 31.9665 17.1107 31.8588 17.6032C31.751 18.0957 31.6972 18.6421 31.6972 19.2423V19.704C31.6972 20.2273 31.7664 20.7121 31.905 21.1585C32.0512 21.6048 32.2628 21.9934 32.5398 22.3243C32.8246 22.6475 33.1631 22.9015 33.5556 23.0861C33.9558 23.2631 34.4098 23.3516 34.9177 23.3516C35.5564 23.3516 36.1336 23.2285 36.6491 22.9823C37.1724 22.7283 37.6265 22.3551 38.0112 21.8626L39.5464 23.4555C39.2848 23.8403 38.9308 24.2097 38.4845 24.5637C38.0459 24.9176 37.5149 25.2062 36.8915 25.4294C36.2682 25.6449 35.5487 25.7526 34.733 25.7526ZM54.5986 22.105C54.5986 21.8433 54.5293 21.6086 54.3908 21.4009C54.2523 21.1931 53.9906 21.0046 53.6059 20.8353C53.2288 20.6583 52.6747 20.4928 51.9437 20.3389C51.2973 20.2004 50.7009 20.0272 50.1545 19.8195C49.6081 19.6117 49.1387 19.3616 48.7462 19.0692C48.3538 18.7691 48.046 18.4189 47.8228 18.0188C47.6073 17.6109 47.4996 17.1415 47.4996 16.6105C47.4996 16.0949 47.6112 15.6101 47.8343 15.1561C48.0575 14.6944 48.3807 14.2904 48.804 13.9441C49.2272 13.5901 49.7428 13.313 50.3507 13.113C50.9587 12.9052 51.6435 12.8013 52.4054 12.8013C53.4673 12.8013 54.3792 12.9744 55.1411 13.3207C55.9106 13.667 56.4993 14.1441 56.9072 14.7521C57.315 15.3523 57.519 16.0295 57.519 16.7836H54.4716C54.4716 16.4527 54.3946 16.1526 54.2407 15.8833C54.0945 15.614 53.8675 15.3985 53.5597 15.2369C53.2519 15.0676 52.8633 14.9829 52.3938 14.9829C51.9706 14.9829 51.6128 15.0522 51.3203 15.1907C51.0356 15.3292 50.8201 15.5101 50.6739 15.7332C50.5277 15.9564 50.4546 16.2026 50.4546 16.472C50.4546 16.6721 50.4931 16.8529 50.57 17.0145C50.6547 17.1684 50.7894 17.3108 50.9741 17.4416C51.1587 17.5724 51.4088 17.6917 51.7244 17.7994C52.0476 17.9072 52.4439 18.0111 52.9133 18.1111C53.8444 18.2958 54.6563 18.542 55.3489 18.8499C56.0491 19.15 56.5955 19.5501 56.988 20.0503C57.3804 20.5505 57.5767 21.1892 57.5767 21.9665C57.5767 22.5205 57.4574 23.0284 57.2188 23.4902C56.9803 23.9442 56.634 24.3405 56.18 24.6791C55.7259 25.0177 55.1834 25.2832 54.5524 25.4756C53.9214 25.6602 53.2096 25.7526 52.4169 25.7526C51.2703 25.7526 50.3007 25.5487 49.5081 25.1408C48.7155 24.7253 48.1152 24.202 47.7074 23.571C47.2995 22.9322 47.0956 22.2704 47.0956 21.5856H50.016C50.0391 22.0704 50.1699 22.459 50.4084 22.7514C50.647 23.0438 50.9471 23.2554 51.3088 23.3863C51.6782 23.5094 52.0668 23.571 52.4746 23.571C52.9364 23.571 53.325 23.5094 53.6405 23.3863C53.956 23.2554 54.1946 23.0823 54.3562 22.8668C54.5178 22.6437 54.5986 22.3897 54.5986 22.105ZM63.556 24.1366L66.9034 13.0322H70.1701L65.1604 27.4148C65.045 27.7226 64.895 28.0573 64.7103 28.419C64.5333 28.7807 64.2947 29.1232 63.9946 29.4464C63.6945 29.7773 63.3174 30.0466 62.8634 30.2544C62.4171 30.4621 61.8745 30.566 61.2358 30.566C60.9588 30.566 60.7125 30.5468 60.4971 30.5083C60.2816 30.4698 60.0546 30.4198 59.816 30.3583V28.0727C59.893 28.0804 59.9815 28.0843 60.0815 28.0843C60.1892 28.092 60.2816 28.0958 60.3585 28.0958C60.8049 28.0958 61.1743 28.042 61.4667 27.9342C61.7591 27.8342 61.9938 27.6687 62.1708 27.4379C62.3555 27.2147 62.5094 26.9223 62.6325 26.5606L63.556 24.1366ZM61.9053 13.0322L64.7334 22.232L65.2297 25.4525L63.1289 25.8334L58.6155 13.0322H61.9053ZM78.5157 22.105C78.5157 21.8433 78.4465 21.6086 78.308 21.4009C78.1694 21.1931 77.9078 21.0046 77.523 20.8353C77.146 20.6583 76.5919 20.4928 75.8608 20.3389C75.2144 20.2004 74.618 20.0272 74.0717 19.8195C73.5253 19.6117 73.0559 19.3616 72.6634 19.0692C72.271 18.7691 71.9631 18.4189 71.74 18.0188C71.5245 17.6109 71.4168 17.1415 71.4168 16.6105C71.4168 16.0949 71.5284 15.6101 71.7515 15.1561C71.9747 14.6944 72.2979 14.2904 72.7211 13.9441C73.1444 13.5901 73.66 13.313 74.2679 13.113C74.8758 12.9052 75.5607 12.8013 76.3226 12.8013C77.3845 12.8013 78.2964 12.9744 79.0583 13.3207C79.8278 13.667 80.4165 14.1441 80.8243 14.7521C81.2322 15.3523 81.4361 16.0295 81.4361 16.7836H78.3888C78.3888 16.4527 78.3118 16.1526 78.1579 15.8833C78.0117 15.614 77.7847 15.3985 77.4769 15.2369C77.1691 15.0676 76.7804 14.9829 76.311 14.9829C75.8878 14.9829 75.5299 15.0522 75.2375 15.1907C74.9528 15.3292 74.7373 15.5101 74.5911 15.7332C74.4449 15.9564 74.3718 16.2026 74.3718 16.472C74.3718 16.6721 74.4103 16.8529 74.4872 17.0145C74.5719 17.1684 74.7065 17.3108 74.8912 17.4416C75.0759 17.5724 75.326 17.6917 75.6415 17.7994C75.9647 17.9072 76.361 18.0111 76.8305 18.1111C77.7616 18.2958 78.5735 18.542 79.266 18.8499C79.9663 19.15 80.5127 19.5501 80.9051 20.0503C81.2976 20.5505 81.4938 21.1892 81.4938 21.9665C81.4938 22.5205 81.3746 23.0284 81.136 23.4902C80.8975 23.9442 80.5512 24.3405 80.0971 24.6791C79.6431 25.0177 79.1006 25.2832 78.4696 25.4756C77.8385 25.6602 77.1267 25.7526 76.3341 25.7526C75.1875 25.7526 74.2179 25.5487 73.4253 25.1408C72.6326 24.7253 72.0324 24.202 71.6245 23.571C71.2167 22.9322 71.0128 22.2704 71.0128 21.5856H73.9332C73.9562 22.0704 74.0871 22.459 74.3256 22.7514C74.5642 23.0438 74.8643 23.2554 75.226 23.3863C75.5953 23.5094 75.984 23.571 76.3918 23.571C76.8535 23.571 77.2422 23.5094 77.5577 23.3863C77.8732 23.2554 78.1117 23.0823 78.2733 22.8668C78.4349 22.6437 78.5157 22.3897 78.5157 22.105ZM89.724 13.0322V15.2253H82.5673V13.0322H89.724ZM84.4835 9.96171H87.5424V21.9203C87.5424 22.2897 87.5924 22.5744 87.6925 22.7745C87.7925 22.9746 87.9426 23.1092 88.1426 23.1785C88.3427 23.2478 88.5813 23.2824 88.8583 23.2824C89.0584 23.2824 89.2431 23.2708 89.4124 23.2478C89.5817 23.2247 89.724 23.2016 89.8395 23.1785L89.851 25.464C89.5971 25.5487 89.3085 25.6179 88.9853 25.6718C88.6698 25.7257 88.3119 25.7526 87.9118 25.7526C87.2269 25.7526 86.6267 25.6372 86.1111 25.4063C85.5955 25.1677 85.1953 24.7868 84.9106 24.2635C84.6259 23.7326 84.4835 23.0323 84.4835 22.1627V9.96171ZM97.3655 25.7526C96.419 25.7526 95.5687 25.5987 94.8145 25.2909C94.0604 24.9831 93.4178 24.556 92.8868 24.0096C92.3635 23.4555 91.9595 22.813 91.6748 22.0819C91.3978 21.3431 91.2593 20.5505 91.2593 19.704V19.2423C91.2593 18.2804 91.3978 17.407 91.6748 16.622C91.9518 15.8294 92.3443 15.1484 92.8522 14.5789C93.3601 14.0095 93.968 13.5708 94.676 13.263C95.384 12.9552 96.165 12.8013 97.0192 12.8013C97.9042 12.8013 98.6853 12.9514 99.3625 13.2515C100.04 13.5439 100.605 13.9595 101.059 14.4981C101.513 15.0368 101.856 15.6832 102.087 16.4374C102.317 17.1838 102.433 18.0111 102.433 18.9191V20.2004H92.6444V18.0996H99.4317V17.8687C99.4163 17.3839 99.324 16.9414 99.1547 16.5412C98.9854 16.1334 98.7237 15.8102 98.3698 15.5716C98.0158 15.3254 97.5579 15.2023 96.9961 15.2023C96.5421 15.2023 96.1458 15.3023 95.8072 15.5024C95.4763 15.6948 95.1993 15.9718 94.9761 16.3335C94.7606 16.6875 94.599 17.1107 94.4913 17.6032C94.3836 18.0957 94.3297 18.6421 94.3297 19.2423V19.704C94.3297 20.2273 94.399 20.7121 94.5375 21.1585C94.6837 21.6048 94.8953 21.9934 95.1723 22.3243C95.4571 22.6475 95.7957 22.9015 96.1881 23.0861C96.5883 23.2631 97.0423 23.3516 97.5502 23.3516C98.1889 23.3516 98.7661 23.2285 99.2817 22.9823C99.8049 22.7283 100.259 22.3551 100.644 21.8626L102.179 23.4555C101.917 23.8403 101.563 24.2097 101.117 24.5637C100.678 24.9176 100.147 25.2062 99.5241 25.4294C98.9007 25.6449 98.1812 25.7526 97.3655 25.7526ZM107.512 15.5947V25.5217H104.464V13.0322H107.339L107.512 15.5947ZM107.062 18.8268H106.127C106.127 17.9572 106.231 17.1569 106.438 16.4258C106.654 15.6948 106.969 15.0599 107.385 14.5212C107.8 13.9748 108.312 13.5516 108.92 13.2515C109.536 12.9514 110.248 12.8013 111.056 12.8013C111.617 12.8013 112.133 12.886 112.602 13.0552C113.072 13.2169 113.476 13.4746 113.814 13.8286C114.161 14.1749 114.426 14.6289 114.611 15.1907C114.796 15.7448 114.888 16.4104 114.888 17.1877V25.5217H111.84V17.4993C111.84 16.9145 111.756 16.4566 111.587 16.1257C111.425 15.7948 111.19 15.5639 110.882 15.4331C110.575 15.2946 110.205 15.2253 109.774 15.2253C109.297 15.2253 108.885 15.3215 108.539 15.5139C108.201 15.6986 107.92 15.9564 107.697 16.2873C107.481 16.6182 107.319 16.9991 107.212 17.4301C107.112 17.861 107.062 18.3266 107.062 18.8268ZM114.657 18.2612L113.399 18.492C113.406 17.7071 113.514 16.9722 113.722 16.2873C113.93 15.5947 114.234 14.9906 114.634 14.475C115.042 13.9518 115.546 13.5439 116.146 13.2515C116.754 12.9514 117.454 12.8013 118.247 12.8013C118.863 12.8013 119.417 12.8898 119.909 13.0668C120.409 13.2361 120.836 13.5093 121.19 13.8863C121.544 14.2557 121.814 14.7367 121.998 15.3292C122.191 15.9218 122.287 16.6451 122.287 17.4993V25.5217H119.216V17.4878C119.216 16.8798 119.132 16.4143 118.963 16.0911C118.801 15.7679 118.566 15.5447 118.258 15.4216C117.951 15.2907 117.589 15.2253 117.173 15.2253C116.75 15.2253 116.381 15.3061 116.065 15.4677C115.757 15.6217 115.496 15.8371 115.28 16.1142C115.073 16.3912 114.915 16.7144 114.807 17.0838C114.707 17.4455 114.657 17.8379 114.657 18.2612ZM137.778 22.105C137.778 21.8433 137.708 21.6086 137.57 21.4009C137.431 21.1931 137.17 21.0046 136.785 20.8353C136.408 20.6583 135.854 20.4928 135.123 20.3389C134.476 20.2004 133.88 20.0272 133.334 19.8195C132.787 19.6117 132.318 19.3616 131.925 19.0692C131.533 18.7691 131.225 18.4189 131.002 18.0188C130.786 17.6109 130.679 17.1415 130.679 16.6105C130.679 16.0949 130.79 15.6101 131.013 15.1561C131.237 14.6944 131.56 14.2904 131.983 13.9441C132.406 13.5901 132.922 13.313 133.53 13.113C134.138 12.9052 134.823 12.8013 135.585 12.8013C136.646 12.8013 137.558 12.9744 138.32 13.3207C139.09 13.667 139.678 14.1441 140.086 14.7521C140.494 15.3523 140.698 16.0295 140.698 16.7836H137.651C137.651 16.4527 137.574 16.1526 137.42 15.8833C137.274 15.614 137.047 15.3985 136.739 15.2369C136.431 15.0676 136.042 14.9829 135.573 14.9829C135.15 14.9829 134.792 15.0522 134.499 15.1907C134.215 15.3292 133.999 15.5101 133.853 15.7332C133.707 15.9564 133.634 16.2026 133.634 16.472C133.634 16.6721 133.672 16.8529 133.749 17.0145C133.834 17.1684 133.968 17.3108 134.153 17.4416C134.338 17.5724 134.588 17.6917 134.903 17.7994C135.227 17.9072 135.623 18.0111 136.092 18.1111C137.024 18.2958 137.835 18.542 138.528 18.8499C139.228 19.15 139.775 19.5501 140.167 20.0503C140.56 20.5505 140.756 21.1892 140.756 21.9665C140.756 22.5205 140.637 23.0284 140.398 23.4902C140.159 23.9442 139.813 24.3405 139.359 24.6791C138.905 25.0177 138.363 25.2832 137.732 25.4756C137.101 25.6602 136.389 25.7526 135.596 25.7526C134.449 25.7526 133.48 25.5487 132.687 25.1408C131.895 24.7253 131.294 24.202 130.887 23.571C130.479 22.9322 130.275 22.2704 130.275 21.5856H133.195C133.218 22.0704 133.349 22.459 133.588 22.7514C133.826 23.0438 134.126 23.2554 134.488 23.3863C134.857 23.5094 135.246 23.571 135.654 23.571C136.115 23.571 136.504 23.5094 136.82 23.3863C137.135 23.2554 137.374 23.0823 137.535 22.8668C137.697 22.6437 137.778 22.3897 137.778 22.105ZM148.986 13.0322V15.2253H141.829V13.0322H148.986ZM143.745 9.96171H146.804V21.9203C146.804 22.2897 146.854 22.5744 146.954 22.7745C147.054 22.9746 147.205 23.1092 147.405 23.1785C147.605 23.2478 147.843 23.2824 148.12 23.2824C148.32 23.2824 148.505 23.2708 148.674 23.2478C148.844 23.2247 148.986 23.2016 149.101 23.1785L149.113 25.464C148.859 25.5487 148.57 25.6179 148.247 25.6718C147.932 25.7257 147.574 25.7526 147.174 25.7526C146.489 25.7526 145.889 25.6372 145.373 25.4063C144.857 25.1677 144.457 24.7868 144.173 24.2635C143.888 23.7326 143.745 23.0323 143.745 22.1627V9.96171ZM157.897 22.8668V17.1069C157.897 16.6836 157.824 16.3181 157.678 16.0103C157.532 15.7025 157.309 15.4639 157.008 15.2946C156.708 15.1253 156.327 15.0407 155.866 15.0407C155.458 15.0407 155.1 15.1099 154.792 15.2484C154.492 15.3869 154.261 15.5832 154.1 15.8371C153.938 16.0834 153.857 16.3681 153.857 16.6913H150.798C150.798 16.1757 150.921 15.6871 151.168 15.2253C151.414 14.7559 151.764 14.3404 152.218 13.9787C152.68 13.6093 153.23 13.3207 153.869 13.113C154.515 12.9052 155.238 12.8013 156.039 12.8013C156.985 12.8013 157.828 12.9629 158.567 13.2861C159.313 13.6016 159.898 14.0787 160.321 14.7174C160.752 15.3562 160.968 16.1603 160.968 17.1299V22.5783C160.968 23.2016 161.006 23.7364 161.083 24.1827C161.168 24.6214 161.291 25.0023 161.452 25.3255V25.5217H158.347C158.201 25.2062 158.09 24.8061 158.013 24.3213C157.936 23.8287 157.897 23.3439 157.897 22.8668ZM158.324 17.9149L158.347 19.7271H156.42C155.943 19.7271 155.523 19.7771 155.162 19.8772C154.8 19.9695 154.504 20.108 154.273 20.2927C154.042 20.4697 153.869 20.6852 153.753 20.9391C153.638 21.1854 153.58 21.4663 153.58 21.7818C153.58 22.0896 153.649 22.3666 153.788 22.6129C153.934 22.8591 154.142 23.0554 154.411 23.2016C154.688 23.3401 155.011 23.4094 155.381 23.4094C155.92 23.4094 156.389 23.3016 156.789 23.0861C157.189 22.863 157.501 22.5936 157.724 22.2781C157.947 21.9626 158.067 21.6625 158.082 21.3778L158.959 22.6937C158.851 23.0092 158.69 23.3439 158.474 23.6979C158.259 24.0519 157.982 24.3828 157.643 24.6906C157.305 24.9984 156.897 25.2524 156.42 25.4525C155.943 25.6525 155.389 25.7526 154.758 25.7526C153.949 25.7526 153.226 25.591 152.587 25.2678C151.949 24.9446 151.445 24.5021 151.075 23.9403C150.706 23.3786 150.521 22.7399 150.521 22.0242C150.521 21.3624 150.644 20.7775 150.891 20.2696C151.137 19.7618 151.502 19.3347 151.987 18.9884C152.472 18.6344 153.072 18.3689 153.788 18.1919C154.511 18.0072 155.339 17.9149 156.27 17.9149H158.324ZM169.625 13.0322V15.2253H162.468V13.0322H169.625ZM164.384 9.96171H167.443V21.9203C167.443 22.2897 167.493 22.5744 167.593 22.7745C167.693 22.9746 167.843 23.1092 168.044 23.1785C168.244 23.2478 168.482 23.2824 168.759 23.2824C168.959 23.2824 169.144 23.2708 169.313 23.2478C169.483 23.2247 169.625 23.2016 169.74 23.1785L169.752 25.464C169.498 25.5487 169.209 25.6179 168.886 25.6718C168.571 25.7257 168.213 25.7526 167.813 25.7526C167.128 25.7526 166.528 25.6372 166.012 25.4063C165.496 25.1677 165.096 24.7868 164.811 24.2635C164.527 23.7326 164.384 23.0323 164.384 22.1627V9.96171ZM178.525 22.105C178.525 21.8433 178.455 21.6086 178.317 21.4009C178.178 21.1931 177.917 21.0046 177.532 20.8353C177.155 20.6583 176.601 20.4928 175.87 20.3389C175.223 20.2004 174.627 20.0272 174.081 19.8195C173.534 19.6117 173.065 19.3616 172.672 19.0692C172.28 18.7691 171.972 18.4189 171.749 18.0188C171.533 17.6109 171.426 17.1415 171.426 16.6105C171.426 16.0949 171.537 15.6101 171.76 15.1561C171.984 14.6944 172.307 14.2904 172.73 13.9441C173.153 13.5901 173.669 13.313 174.277 13.113C174.885 12.9052 175.57 12.8013 176.331 12.8013C177.393 12.8013 178.305 12.9744 179.067 13.3207C179.837 13.667 180.425 14.1441 180.833 14.7521C181.241 15.3523 181.445 16.0295 181.445 16.7836H178.398C178.398 16.4527 178.321 16.1526 178.167 15.8833C178.021 15.614 177.794 15.3985 177.486 15.2369C177.178 15.0676 176.789 14.9829 176.32 14.9829C175.897 14.9829 175.539 15.0522 175.246 15.1907C174.962 15.3292 174.746 15.5101 174.6 15.7332C174.454 15.9564 174.381 16.2026 174.381 16.472C174.381 16.6721 174.419 16.8529 174.496 17.0145C174.581 17.1684 174.715 17.3108 174.9 17.4416C175.085 17.5724 175.335 17.6917 175.65 17.7994C175.974 17.9072 176.37 18.0111 176.839 18.1111C177.77 18.2958 178.582 18.542 179.275 18.8499C179.975 19.15 180.522 19.5501 180.914 20.0503C181.306 20.5505 181.503 21.1892 181.503 21.9665C181.503 22.5205 181.383 23.0284 181.145 23.4902C180.906 23.9442 180.56 24.3405 180.106 24.6791C179.652 25.0177 179.109 25.2832 178.478 25.4756C177.847 25.6602 177.136 25.7526 176.343 25.7526C175.196 25.7526 174.227 25.5487 173.434 25.1408C172.642 24.7253 172.041 24.202 171.633 23.571C171.226 22.9322 171.022 22.2704 171.022 21.5856H173.942C173.965 22.0704 174.096 22.459 174.334 22.7514C174.573 23.0438 174.873 23.2554 175.235 23.3863C175.604 23.5094 175.993 23.571 176.401 23.571C176.862 23.571 177.251 23.5094 177.567 23.3863C177.882 23.2554 178.121 23.0823 178.282 22.8668C178.444 22.6437 178.525 22.3897 178.525 22.105Z" fill="#FFEEFF"/>
<line x1="45" y1="207.947" x2="427" y2="210.947" stroke="#FFEEFF" stroke-opacity="0.15" stroke-width="1.47751"/>
<line x1="20" y1="163.831" x2="447" y2="166.786" stroke="#FFEEFF" stroke-opacity="0.05" stroke-width="1.47751"/>
<line x1="20" y1="119.506" x2="447" y2="122.461" stroke="#FFEEFF" stroke-opacity="0.05" stroke-width="1.47751"/>
<line x1="20" y1="75.1809" x2="447" y2="78.1359" stroke="#FFEEFF" stroke-opacity="0.05" stroke-width="1.47751"/>
<path opacity="0.5" d="M75 176.686C75 170.059 80.3726 164.686 87 164.686H92C98.6274 164.686 104 170.059 104 176.686V208.686H75V176.686Z" fill="#6B00ED"/>
<path opacity="0.5" d="M128 158.686C128 152.059 133.373 146.686 140 146.686H146C152.627 146.686 158 152.059 158 158.686V208.686H128V158.686Z" fill="#6B00ED"/>
<path opacity="0.5" d="M181 137.686C181 131.059 186.373 125.686 193 125.686H199C205.627 125.686 211 131.059 211 137.686V208.686H181V137.686Z" fill="#6B00ED"/>
<path opacity="0.5" d="M234 114.686C234 108.059 239.373 102.686 246 102.686H252C258.627 102.686 264 108.059 264 114.686V208.686H234V114.686Z" fill="#6B00ED"/>
<path d="M288 64.686C288 58.0586 293.373 52.686 300 52.686H305C311.627 52.686 317 58.0586 317 64.686V208.686H288V64.686Z" fill="#7300FF"/>
<g filter="url(#filter1_f_80_6543)">
<path d="M288 64.686C288 58.0586 293.373 52.686 300 52.686H305C311.627 52.686 317 58.0586 317 64.686V208.686H288V64.686Z" fill="#7300FF" style="mix-blend-mode:overlay"/>
</g>
<path d="M5.51967 154.562C5.48049 154.195 5.31539 153.91 5.02437 153.706C4.73614 153.501 4.36117 153.399 3.89945 153.399C3.57484 153.399 3.29641 153.448 3.06415 153.546C2.83189 153.644 2.6542 153.777 2.53107 153.945C2.40795 154.113 2.34499 154.304 2.34219 154.52C2.34219 154.699 2.38276 154.854 2.46391 154.986C2.54786 155.117 2.66119 155.229 2.80391 155.322C2.94662 155.411 3.10473 155.487 3.27822 155.548C3.45172 155.61 3.62661 155.662 3.80291 155.704L4.60882 155.905C4.93342 155.981 5.24544 156.083 5.54486 156.212C5.84707 156.34 6.11711 156.503 6.35497 156.698C6.59562 156.894 6.78591 157.131 6.92582 157.408C7.06574 157.685 7.1357 158.009 7.1357 158.382C7.1357 158.885 7.00697 159.329 6.74953 159.712C6.49208 160.093 6.11991 160.391 5.633 160.606C5.14889 160.819 4.56265 160.925 3.87426 160.925C3.20547 160.925 2.62482 160.822 2.13231 160.615C1.64261 160.408 1.25924 160.105 0.982208 159.708C0.707973 159.311 0.559662 158.827 0.537276 158.256H2.06935C2.09174 158.555 2.18408 158.804 2.34638 159.003C2.50869 159.202 2.71996 159.35 2.9802 159.448C3.24324 159.546 3.53707 159.595 3.86167 159.595C4.20027 159.595 4.49689 159.544 4.75153 159.444C5.00898 159.34 5.21046 159.197 5.35597 159.015C5.50148 158.831 5.57564 158.615 5.57844 158.369C5.57564 158.145 5.50988 157.96 5.38115 157.815C5.25243 157.667 5.07194 157.544 4.83968 157.446C4.61022 157.345 4.34158 157.255 4.03377 157.177L3.05576 156.925C2.34778 156.743 1.78812 156.468 1.37677 156.098C0.968216 155.726 0.763939 155.232 0.763939 154.616C0.763939 154.11 0.901057 153.666 1.17529 153.286C1.45232 152.905 1.8287 152.61 2.30441 152.4C2.78012 152.188 3.3188 152.081 3.92044 152.081C4.53047 152.081 5.06495 152.188 5.52387 152.4C5.98559 152.61 6.34797 152.903 6.61101 153.278C6.87405 153.65 7.00977 154.078 7.01817 154.562H5.51967ZM11.9365 152.199V160.795H10.3793V153.714H10.3289L8.31833 154.998V153.571L10.4548 152.199H11.9365Z" fill="#FFEEFF"/>
<path d="M5.51967 110.236C5.48049 109.87 5.31539 109.584 5.02437 109.38C4.73614 109.176 4.36117 109.074 3.89945 109.074C3.57484 109.074 3.29641 109.123 3.06415 109.221C2.83189 109.319 2.6542 109.452 2.53107 109.619C2.40795 109.787 2.34499 109.979 2.34219 110.195C2.34219 110.374 2.38276 110.529 2.46391 110.66C2.54786 110.792 2.66119 110.904 2.80391 110.996C2.94662 111.086 3.10473 111.161 3.27822 111.223C3.45172 111.284 3.62661 111.336 3.80291 111.378L4.60882 111.58C4.93342 111.655 5.24544 111.757 5.54486 111.886C5.84707 112.015 6.11711 112.177 6.35497 112.373C6.59562 112.569 6.78591 112.805 6.92582 113.082C7.06574 113.359 7.1357 113.684 7.1357 114.056C7.1357 114.56 7.00697 115.003 6.74953 115.387C6.49208 115.767 6.11991 116.065 5.633 116.281C5.14889 116.494 4.56265 116.6 3.87426 116.6C3.20547 116.6 2.62482 116.496 2.13231 116.289C1.64261 116.082 1.25924 115.78 0.982208 115.383C0.707973 114.985 0.559662 114.501 0.537276 113.93H2.06935C2.09174 114.23 2.18408 114.479 2.34638 114.677C2.50869 114.876 2.71996 115.024 2.9802 115.122C3.24324 115.22 3.53707 115.269 3.86167 115.269C4.20027 115.269 4.49689 115.219 4.75153 115.118C5.00898 115.015 5.21046 114.872 5.35597 114.69C5.50148 114.505 5.57564 114.29 5.57844 114.044C5.57564 113.82 5.50988 113.635 5.38115 113.49C5.25243 113.341 5.07194 113.218 4.83968 113.12C4.61022 113.019 4.34158 112.93 4.03377 112.852L3.05576 112.6C2.34778 112.418 1.78812 112.142 1.37677 111.773C0.968216 111.401 0.763939 110.907 0.763939 110.291C0.763939 109.785 0.901057 109.341 1.17529 108.96C1.45232 108.58 1.8287 108.285 2.30441 108.075C2.78012 107.862 3.3188 107.756 3.92044 107.756C4.53047 107.756 5.06495 107.862 5.52387 108.075C5.98559 108.285 6.34797 108.577 6.61101 108.952C6.87405 109.324 7.00977 109.752 7.01817 110.236H5.51967ZM8.44006 116.47V115.345L11.4245 112.419C11.7099 112.131 11.9477 111.875 12.138 111.651C12.3283 111.427 12.471 111.21 12.5662 111C12.6613 110.791 12.7089 110.567 12.7089 110.329C12.7089 110.057 12.6473 109.825 12.5242 109.632C12.4011 109.436 12.2318 109.285 12.0163 109.179C11.8008 109.072 11.556 109.019 11.2817 109.019C10.9991 109.019 10.7515 109.078 10.5388 109.196C10.3261 109.31 10.161 109.474 10.0435 109.687C9.92876 109.899 9.8714 110.153 9.8714 110.446H8.38969C8.38969 109.901 8.51421 109.426 8.76326 109.023C9.01231 108.62 9.35511 108.308 9.79164 108.087C10.231 107.866 10.7347 107.756 11.3027 107.756C11.8792 107.756 12.3857 107.864 12.8222 108.079C13.2588 108.294 13.5973 108.59 13.838 108.965C14.0815 109.34 14.2032 109.768 14.2032 110.249C14.2032 110.571 14.1416 110.887 14.0185 111.198C13.8954 111.508 13.6785 111.853 13.3679 112.23C13.0601 112.608 12.6277 113.066 12.0709 113.603L10.5892 115.11V115.169H14.3333V116.47H8.44006Z" fill="#FFEEFF"/>
<path d="M5.51967 65.9113C5.48049 65.5447 5.31539 65.2593 5.02437 65.055C4.73614 64.8507 4.36117 64.7486 3.89945 64.7486C3.57484 64.7486 3.29641 64.7976 3.06415 64.8955C2.83189 64.9934 2.6542 65.1264 2.53107 65.2943C2.40795 65.4622 2.34499 65.6538 2.34219 65.8693C2.34219 66.0484 2.38276 66.2037 2.46391 66.3352C2.54786 66.4668 2.66119 66.5787 2.80391 66.671C2.94662 66.7606 3.10473 66.8361 3.27822 66.8977C3.45172 66.9593 3.62661 67.011 3.80291 67.053L4.60882 67.2545C4.93342 67.33 5.24544 67.4322 5.54486 67.5609C5.84707 67.6896 6.11711 67.8519 6.35497 68.0478C6.59562 68.2437 6.78591 68.4801 6.92582 68.7572C7.06574 69.0342 7.1357 69.3588 7.1357 69.731C7.1357 70.2347 7.00697 70.6782 6.74953 71.0616C6.49208 71.4422 6.11991 71.7402 5.633 71.9556C5.14889 72.1683 4.56265 72.2747 3.87426 72.2747C3.20547 72.2747 2.62482 72.1711 2.13231 71.964C1.64261 71.757 1.25924 71.4547 0.982208 71.0574C0.707973 70.66 0.559662 70.1759 0.537276 69.6051H2.06935C2.09174 69.9045 2.18408 70.1535 2.34638 70.3522C2.50869 70.5509 2.71996 70.6992 2.9802 70.7971C3.24324 70.8951 3.53707 70.9441 3.86167 70.9441C4.20027 70.9441 4.49689 70.8937 4.75153 70.7929C5.00898 70.6894 5.21046 70.5467 5.35597 70.3648C5.50148 70.1801 5.57564 69.9646 5.57844 69.7184C5.57564 69.4945 5.50988 69.3098 5.38115 69.1643C5.25243 69.016 5.07194 68.8929 4.83968 68.795C4.61022 68.6942 4.34158 68.6047 4.03377 68.5263L3.05576 68.2745C2.34778 68.0926 1.78812 67.8169 1.37677 67.4476C0.968216 67.0754 0.763939 66.5815 0.763939 65.9659C0.763939 65.4594 0.901057 65.0158 1.17529 64.6353C1.45232 64.2547 1.8287 63.9595 2.30441 63.7496C2.78012 63.5369 3.3188 63.4306 3.92044 63.4306C4.53047 63.4306 5.06495 63.5369 5.52387 63.7496C5.98559 63.9595 6.34797 64.2519 6.61101 64.6269C6.87405 64.999 7.00977 65.4272 7.01817 65.9113H5.51967ZM11.5252 72.2621C10.9208 72.2621 10.3835 72.1585 9.91337 71.9514C9.44605 71.7444 9.07668 71.4561 8.80524 71.0868C8.5338 70.7174 8.38969 70.2906 8.3729 69.8065H9.95115C9.96514 70.0388 10.0421 70.2417 10.182 70.4152C10.3219 70.5859 10.508 70.7188 10.7403 70.8139C10.9725 70.9091 11.2328 70.9566 11.521 70.9566C11.8288 70.9566 12.1017 70.9035 12.3395 70.7971C12.5774 70.688 12.7635 70.5369 12.8978 70.3438C13.0321 70.1507 13.0978 69.9283 13.0951 69.6764C13.0978 69.4162 13.0307 69.1867 12.8936 68.988C12.7565 68.7894 12.5578 68.634 12.2975 68.5221C12.0401 68.4102 11.7295 68.3542 11.3657 68.3542H10.606V67.1537H11.3657C11.6651 67.1537 11.9268 67.102 12.1506 66.9984C12.3773 66.8949 12.555 66.7494 12.6837 66.5619C12.8124 66.3716 12.8754 66.1519 12.8726 65.9029C12.8754 65.6594 12.8208 65.4482 12.7089 65.2691C12.5998 65.0872 12.4444 64.9459 12.243 64.8451C12.0443 64.7444 11.8106 64.694 11.542 64.694C11.2789 64.694 11.0355 64.7416 10.8116 64.8367C10.5878 64.9319 10.4073 65.0676 10.2702 65.2439C10.133 65.4174 10.0603 65.6245 10.0519 65.8651H8.55339C8.56458 65.3838 8.7031 64.9613 8.96894 64.5975C9.23758 64.2309 9.59576 63.9455 10.0435 63.7412C10.4912 63.5341 10.9935 63.4306 11.5504 63.4306C12.124 63.4306 12.6221 63.5383 13.0447 63.7538C13.47 63.9665 13.7988 64.2533 14.0311 64.6143C14.2633 64.9753 14.3795 65.374 14.3795 65.8106C14.3823 66.2947 14.2396 66.7004 13.9513 67.0278C13.6659 67.3552 13.2909 67.5693 12.8264 67.67V67.7372C13.4308 67.8211 13.894 68.045 14.2158 68.4088C14.5404 68.7698 14.7013 69.2189 14.6985 69.7562C14.6985 70.2375 14.5614 70.6684 14.2871 71.049C14.0157 71.4268 13.6407 71.7234 13.1622 71.9389C12.6865 72.1543 12.1408 72.2621 11.5252 72.2621Z" fill="#FFEEFF"/>
<path d="M4.38813 206.381H1.97031V205.405H4.38813C4.85636 205.405 5.23551 205.33 5.52556 205.181C5.81562 205.032 6.02695 204.825 6.15954 204.56C6.29628 204.295 6.36465 203.992 6.36465 203.652C6.36465 203.342 6.29628 203.049 6.15954 202.776C6.02695 202.502 5.81562 202.283 5.52556 202.117C5.23551 201.947 4.85636 201.862 4.38813 201.862H2.25V209.93H1.05042V200.88H4.38813C5.07183 200.88 5.64987 200.998 6.12225 201.234C6.59463 201.471 6.95305 201.798 7.19753 202.217C7.442 202.631 7.56424 203.105 7.56424 203.64C7.56424 204.22 7.442 204.715 7.19753 205.125C6.95305 205.536 6.59463 205.848 6.12225 206.064C5.64987 206.275 5.07183 206.381 4.38813 206.381ZM10.1561 200.383V209.93H9.00002V200.383H10.1561ZM15.9676 208.78V205.318C15.9676 205.053 15.9137 204.823 15.806 204.628C15.7024 204.429 15.5449 204.276 15.3336 204.168C15.1223 204.06 14.8612 204.007 14.5504 204.007C14.2604 204.007 14.0056 204.056 13.7859 204.156C13.5705 204.255 13.4006 204.386 13.2763 204.547C13.1561 204.709 13.096 204.883 13.096 205.069H11.9462C11.9462 204.829 12.0083 204.591 12.1326 204.355C12.2569 204.118 12.4351 203.905 12.6672 203.714C12.9033 203.52 13.1851 203.366 13.5125 203.255C13.844 203.138 14.2127 203.08 14.6188 203.08C15.1078 203.08 15.5387 203.163 15.9116 203.329C16.2887 203.495 16.5829 203.746 16.7942 204.081C17.0097 204.413 17.1174 204.829 17.1174 205.33V208.463C17.1174 208.687 17.1361 208.925 17.1734 209.178C17.2148 209.431 17.2749 209.648 17.3536 209.83V209.93H16.154C16.096 209.797 16.0504 209.621 16.0173 209.402C15.9841 209.178 15.9676 208.971 15.9676 208.78ZM16.1665 205.853L16.1789 206.661H15.0166C14.6893 206.661 14.3971 206.688 14.1402 206.741C13.8833 206.791 13.6678 206.868 13.4938 206.971C13.3198 207.075 13.1872 207.205 13.096 207.363C13.0049 207.516 12.9593 207.697 12.9593 207.904C12.9593 208.115 13.0069 208.308 13.1022 208.482C13.1975 208.656 13.3405 208.795 13.5311 208.898C13.7259 208.998 13.9641 209.047 14.2459 209.047C14.5981 209.047 14.9089 208.973 15.1782 208.824C15.4475 208.674 15.6609 208.492 15.8184 208.277C15.98 208.061 16.067 207.852 16.0795 207.649L16.5705 208.202C16.5415 208.376 16.4627 208.569 16.3343 208.78C16.2058 208.991 16.0339 209.194 15.8184 209.389C15.6071 209.58 15.3543 209.739 15.0601 209.868C14.7701 209.992 14.4427 210.054 14.0781 210.054C13.6223 210.054 13.2224 209.965 12.8785 209.787C12.5387 209.609 12.2735 209.371 12.0829 209.072C11.8964 208.77 11.8032 208.432 11.8032 208.059C11.8032 207.699 11.8736 207.382 12.0145 207.108C12.1554 206.83 12.3585 206.601 12.6236 206.418C12.8888 206.232 13.2079 206.091 13.5808 205.996C13.9538 205.9 14.3702 205.853 14.8301 205.853H16.1665ZM20.7286 209.234L22.5995 203.205H23.8302L21.1326 210.968C21.0705 211.134 20.9876 211.312 20.884 211.502C20.7846 211.697 20.6561 211.882 20.4987 212.056C20.3412 212.23 20.1506 212.371 19.9268 212.478C19.7072 212.59 19.4441 212.646 19.1375 212.646C19.0463 212.646 18.9303 212.634 18.7894 212.609C18.6485 212.584 18.5491 212.563 18.4911 212.547L18.4848 211.614C18.518 211.618 18.5698 211.623 18.6402 211.627C18.7148 211.635 18.7666 211.639 18.7956 211.639C19.0567 211.639 19.2784 211.604 19.4607 211.534C19.643 211.467 19.7963 211.353 19.9206 211.192C20.0491 211.034 20.1589 210.817 20.25 210.539L20.7286 209.234ZM19.355 203.205L21.1016 208.426L21.3999 209.638L20.5732 210.06L18.0995 203.205H19.355ZM27.5843 210.054C27.1161 210.054 26.6914 209.976 26.3101 209.818C25.9331 209.656 25.6078 209.431 25.3343 209.141C25.065 208.851 24.8578 208.507 24.7128 208.109C24.5677 207.711 24.4952 207.276 24.4952 206.804V206.542C24.4952 205.996 24.576 205.509 24.7376 205.082C24.8992 204.651 25.1188 204.286 25.3965 203.988C25.6741 203.69 25.989 203.464 26.3412 203.31C26.6934 203.157 27.0581 203.08 27.4351 203.08C27.9158 203.08 28.3302 203.163 28.6782 203.329C29.0304 203.495 29.3184 203.727 29.5422 204.025C29.7659 204.319 29.9317 204.667 30.0394 205.069C30.1472 205.467 30.201 205.902 30.201 206.375V206.891H25.1789V205.952H29.0512V205.865C29.0346 205.567 28.9724 205.277 28.8647 204.995C28.7611 204.713 28.5954 204.481 28.3675 204.299C28.1396 204.116 27.8288 204.025 27.4351 204.025C27.1741 204.025 26.9338 204.081 26.7141 204.193C26.4945 204.301 26.306 204.462 26.1485 204.678C25.9911 204.893 25.8688 205.156 25.7818 205.467C25.6948 205.778 25.6513 206.136 25.6513 206.542V206.804C25.6513 207.123 25.6948 207.423 25.7818 207.705C25.873 207.982 26.0035 208.227 26.1734 208.438C26.3474 208.65 26.5567 208.815 26.8012 208.935C27.0498 209.056 27.3315 209.116 27.6465 209.116C28.0525 209.116 28.3965 209.033 28.6782 208.867C28.96 208.701 29.2066 208.48 29.4179 208.202L30.114 208.755C29.969 208.975 29.7846 209.184 29.5608 209.383C29.3371 209.582 29.0615 209.743 28.7342 209.868C28.411 209.992 28.0277 210.054 27.5843 210.054ZM32.6934 204.261V209.93H31.5436V203.205H32.6624L32.6934 204.261ZM34.7943 203.167L34.7881 204.237C34.6927 204.216 34.6016 204.203 34.5146 204.199C34.4317 204.191 34.3364 204.187 34.2287 204.187C33.9635 204.187 33.7293 204.228 33.5263 204.311C33.3233 204.394 33.1513 204.51 33.0104 204.659C32.8695 204.808 32.7577 204.987 32.6748 205.194C32.5961 205.397 32.5443 205.621 32.5194 205.865L32.1962 206.051C32.1962 205.645 32.2356 205.264 32.3143 204.908C32.3972 204.551 32.5235 204.237 32.6934 203.963C32.8633 203.685 33.0788 203.47 33.3398 203.317C33.605 203.159 33.92 203.08 34.2846 203.08C34.3675 203.08 34.4628 203.091 34.5705 203.112C34.6782 203.128 34.7528 203.147 34.7943 203.167Z" fill="white"/>
<path d="M84.6857 216.784V224.186H83.7504V217.952L81.8646 218.64V217.795L84.5391 216.784H84.6857ZM92.0774 222.194C92.0774 222.642 91.9729 223.023 91.764 223.337C91.5584 223.647 91.2786 223.883 90.9247 224.044C90.5741 224.206 90.1781 224.287 89.7366 224.287C89.295 224.287 88.8973 224.206 88.5434 224.044C88.1895 223.883 87.9097 223.647 87.7041 223.337C87.4985 223.023 87.3957 222.642 87.3957 222.194C87.3957 221.901 87.4513 221.633 87.5625 221.39C87.6771 221.144 87.8372 220.93 88.0428 220.748C88.2518 220.566 88.4979 220.426 88.781 220.328C89.0675 220.227 89.3826 220.177 89.7264 220.177C90.1781 220.177 90.5809 220.264 90.9348 220.44C91.2887 220.612 91.5668 220.849 91.769 221.153C91.9746 221.456 92.0774 221.803 92.0774 222.194ZM91.137 222.174C91.137 221.901 91.078 221.66 90.9601 221.451C90.8421 221.238 90.6769 221.073 90.4646 220.955C90.2523 220.837 90.0062 220.778 89.7264 220.778C89.4399 220.778 89.1922 220.837 88.9832 220.955C88.7776 221.073 88.6175 221.238 88.5029 221.451C88.3883 221.66 88.331 221.901 88.331 222.174C88.331 222.457 88.3866 222.7 88.4979 222.902C88.6125 223.101 88.7743 223.254 88.9832 223.362C89.1956 223.466 89.4467 223.519 89.7366 223.519C90.0264 223.519 90.2758 223.466 90.4848 223.362C90.6938 223.254 90.8539 223.101 90.9651 222.902C91.0797 222.7 91.137 222.457 91.137 222.174ZM91.9055 218.741C91.9055 219.098 91.8112 219.42 91.6224 219.707C91.4336 219.993 91.1758 220.219 90.8488 220.384C90.5219 220.549 90.1511 220.632 89.7366 220.632C89.3152 220.632 88.9394 220.549 88.6091 220.384C88.2821 220.219 88.026 219.993 87.8406 219.707C87.6552 219.42 87.5625 219.098 87.5625 218.741C87.5625 218.313 87.6552 217.949 87.8406 217.649C88.0294 217.349 88.2872 217.12 88.6142 216.961C88.9411 216.803 89.3135 216.724 89.7315 216.724C90.1528 216.724 90.527 216.803 90.8539 216.961C91.1809 217.12 91.437 217.349 91.6224 217.649C91.8112 217.949 91.9055 218.313 91.9055 218.741ZM90.9702 218.756C90.9702 218.51 90.9179 218.293 90.8135 218.104C90.709 217.915 90.564 217.767 90.3787 217.659C90.1933 217.548 89.9776 217.492 89.7315 217.492C89.4854 217.492 89.2697 217.544 89.0843 217.649C88.9023 217.75 88.7591 217.895 88.6546 218.084C88.5535 218.272 88.5029 218.496 88.5029 218.756C88.5029 219.009 88.5535 219.23 88.6546 219.418C88.7591 219.607 88.904 219.754 89.0894 219.858C89.2748 219.963 89.4905 220.015 89.7366 220.015C89.9826 220.015 90.1966 219.963 90.3787 219.858C90.564 219.754 90.709 219.607 90.8135 219.418C90.9179 219.23 90.9702 219.009 90.9702 218.756ZM94.302 216.42V224.186H93.3616V216.42H94.302ZM97.6439 218.716L95.2576 221.269L93.9228 222.654L93.847 221.658L94.8025 220.515L96.5013 218.716H97.6439ZM96.7895 224.186L94.8379 221.577L95.3233 220.743L97.8917 224.186H96.7895Z" fill="white"/>
<path d="M135.542 223.402H135.638C136.177 223.402 136.616 223.327 136.953 223.175C137.29 223.023 137.549 222.819 137.731 222.563C137.913 222.307 138.038 222.019 138.105 221.699C138.173 221.375 138.206 221.043 138.206 220.703V219.575C138.206 219.241 138.168 218.945 138.09 218.685C138.016 218.426 137.912 218.208 137.777 218.033C137.645 217.858 137.495 217.725 137.327 217.634C137.158 217.543 136.98 217.497 136.791 217.497C136.575 217.497 136.381 217.541 136.209 217.629C136.041 217.713 135.898 217.832 135.78 217.988C135.665 218.143 135.577 218.325 135.517 218.534C135.456 218.743 135.426 218.97 135.426 219.216C135.426 219.435 135.453 219.648 135.507 219.853C135.561 220.059 135.643 220.244 135.754 220.409C135.866 220.574 136.004 220.706 136.169 220.804C136.338 220.898 136.535 220.945 136.761 220.945C136.969 220.945 137.165 220.905 137.347 220.824C137.532 220.74 137.696 220.627 137.837 220.485C137.982 220.34 138.097 220.177 138.181 219.995C138.269 219.813 138.319 219.622 138.333 219.423H138.778C138.778 219.703 138.722 219.98 138.611 220.253C138.503 220.522 138.351 220.768 138.156 220.991C137.96 221.213 137.731 221.392 137.468 221.527C137.205 221.658 136.919 221.724 136.609 221.724C136.245 221.724 135.93 221.653 135.663 221.511C135.397 221.37 135.178 221.181 135.006 220.945C134.838 220.709 134.711 220.446 134.627 220.157C134.546 219.863 134.506 219.567 134.506 219.267C134.506 218.916 134.554 218.587 134.652 218.281C134.75 217.974 134.895 217.704 135.087 217.472C135.279 217.236 135.517 217.052 135.8 216.921C136.086 216.789 136.417 216.724 136.791 216.724C137.212 216.724 137.571 216.808 137.868 216.976C138.164 217.145 138.405 217.371 138.591 217.654C138.779 217.937 138.918 218.255 139.005 218.609C139.093 218.963 139.137 219.327 139.137 219.701V220.04C139.137 220.421 139.111 220.809 139.061 221.203C139.014 221.594 138.921 221.968 138.783 222.325C138.648 222.683 138.451 223.003 138.191 223.286C137.932 223.566 137.593 223.788 137.175 223.953C136.761 224.115 136.248 224.196 135.638 224.196H135.542V223.402ZM145.057 219.919V221.041C145.057 221.645 145.003 222.154 144.895 222.568C144.788 222.983 144.633 223.316 144.43 223.569C144.228 223.822 143.984 224.006 143.697 224.12C143.414 224.232 143.094 224.287 142.737 224.287C142.453 224.287 142.192 224.252 141.953 224.181C141.714 224.11 141.498 223.997 141.306 223.842C141.117 223.684 140.955 223.478 140.82 223.225C140.686 222.973 140.583 222.666 140.512 222.305C140.441 221.945 140.406 221.523 140.406 221.041V219.919C140.406 219.316 140.46 218.81 140.568 218.402C140.679 217.994 140.836 217.667 141.038 217.421C141.24 217.172 141.483 216.993 141.766 216.885C142.052 216.777 142.373 216.724 142.726 216.724C143.013 216.724 143.276 216.759 143.515 216.83C143.758 216.897 143.974 217.007 144.162 217.158C144.351 217.307 144.511 217.506 144.643 217.755C144.777 218.001 144.88 218.303 144.951 218.66C145.022 219.017 145.057 219.437 145.057 219.919ZM144.117 221.193V219.762C144.117 219.432 144.097 219.142 144.056 218.893C144.019 218.64 143.963 218.424 143.889 218.245C143.815 218.067 143.721 217.922 143.606 217.811C143.495 217.699 143.365 217.618 143.217 217.568C143.072 217.514 142.908 217.487 142.726 217.487C142.504 217.487 142.307 217.529 142.135 217.613C141.963 217.694 141.818 217.824 141.7 218.003C141.586 218.181 141.498 218.416 141.437 218.705C141.377 218.995 141.346 219.348 141.346 219.762V221.193C141.346 221.523 141.365 221.815 141.402 222.068C141.442 222.32 141.501 222.54 141.579 222.725C141.656 222.907 141.751 223.057 141.862 223.175C141.973 223.293 142.101 223.38 142.246 223.438C142.394 223.492 142.558 223.519 142.737 223.519C142.966 223.519 143.166 223.475 143.338 223.387C143.51 223.3 143.653 223.163 143.768 222.978C143.886 222.789 143.974 222.548 144.031 222.255C144.088 221.958 144.117 221.604 144.117 221.193ZM147.302 216.42V224.186H146.362V216.42H147.302ZM150.644 218.716L148.258 221.269L146.923 222.654L146.847 221.658L147.803 220.515L149.501 218.716H150.644ZM149.79 224.186L147.838 221.577L148.323 220.743L150.892 224.186H149.79Z" fill="white"/>
<path d="M189.587 221.709V222.477H184.268V221.926L187.564 216.825H188.328L187.509 218.301L185.33 221.709H189.587ZM188.56 216.825V224.186H187.625V216.825H188.56ZM195.194 216.825V217.35L192.145 224.186H191.159L194.203 217.593H190.219V216.825H195.194ZM199.334 216.784V224.186H198.399V217.952L196.513 218.64V217.795L199.188 216.784H199.334ZM203.126 216.42V224.186H202.186V216.42H203.126ZM206.468 218.716L204.082 221.269L202.747 222.654L202.671 221.658L203.627 220.515L205.326 218.716H206.468ZM205.614 224.186L203.662 221.577L204.148 220.743L206.716 224.186H205.614Z" fill="white"/>
<path d="M243.686 216.784V224.186H242.75V217.952L240.865 218.64V217.795L243.539 216.784H243.686ZM251.077 222.194C251.077 222.642 250.973 223.023 250.764 223.337C250.558 223.647 250.279 223.883 249.925 224.044C249.574 224.206 249.178 224.287 248.737 224.287C248.295 224.287 247.897 224.206 247.543 224.044C247.189 223.883 246.91 223.647 246.704 223.337C246.498 223.023 246.396 222.642 246.396 222.194C246.396 221.901 246.451 221.633 246.563 221.39C246.677 221.144 246.837 220.93 247.043 220.748C247.252 220.566 247.498 220.426 247.781 220.328C248.067 220.227 248.383 220.177 248.726 220.177C249.178 220.177 249.581 220.264 249.935 220.44C250.289 220.612 250.567 220.849 250.769 221.153C250.975 221.456 251.077 221.803 251.077 222.194ZM250.137 222.174C250.137 221.901 250.078 221.66 249.96 221.451C249.842 221.238 249.677 221.073 249.465 220.955C249.252 220.837 249.006 220.778 248.726 220.778C248.44 220.778 248.192 220.837 247.983 220.955C247.778 221.073 247.618 221.238 247.503 221.451C247.388 221.66 247.331 221.901 247.331 222.174C247.331 222.457 247.387 222.7 247.498 222.902C247.612 223.101 247.774 223.254 247.983 223.362C248.196 223.466 248.447 223.519 248.737 223.519C249.026 223.519 249.276 223.466 249.485 223.362C249.694 223.254 249.854 223.101 249.965 222.902C250.08 222.7 250.137 222.457 250.137 222.174ZM250.906 218.741C250.906 219.098 250.811 219.42 250.622 219.707C250.434 219.993 250.176 220.219 249.849 220.384C249.522 220.549 249.151 220.632 248.737 220.632C248.315 220.632 247.939 220.549 247.609 220.384C247.282 220.219 247.026 219.993 246.841 219.707C246.655 219.42 246.563 219.098 246.563 218.741C246.563 218.313 246.655 217.949 246.841 217.649C247.029 217.349 247.287 217.12 247.614 216.961C247.941 216.803 248.314 216.724 248.731 216.724C249.153 216.724 249.527 216.803 249.854 216.961C250.181 217.12 250.437 217.349 250.622 217.649C250.811 217.949 250.906 218.313 250.906 218.741ZM249.97 218.756C249.97 218.51 249.918 218.293 249.813 218.104C249.709 217.915 249.564 217.767 249.379 217.659C249.193 217.548 248.978 217.492 248.731 217.492C248.485 217.492 248.27 217.544 248.084 217.649C247.902 217.75 247.759 217.895 247.655 218.084C247.553 218.272 247.503 218.496 247.503 218.756C247.503 219.009 247.553 219.23 247.655 219.418C247.759 219.607 247.904 219.754 248.089 219.858C248.275 219.963 248.491 220.015 248.737 220.015C248.983 220.015 249.197 219.963 249.379 219.858C249.564 219.754 249.709 219.607 249.813 219.418C249.918 219.23 249.97 219.009 249.97 218.756ZM253.292 219.803V224.186H252.352V218.716H253.241L253.292 219.803ZM253.1 221.244L252.665 221.228C252.668 220.854 252.717 220.509 252.812 220.192C252.906 219.872 253.046 219.594 253.231 219.358C253.417 219.122 253.647 218.94 253.924 218.812C254.2 218.68 254.52 218.614 254.885 218.614C255.141 218.614 255.377 218.652 255.592 218.726C255.808 218.796 255.995 218.909 256.154 219.064C256.312 219.219 256.435 219.418 256.523 219.661C256.61 219.904 256.654 220.197 256.654 220.541V224.186H255.719V220.586C255.719 220.3 255.67 220.071 255.572 219.899C255.478 219.727 255.343 219.602 255.168 219.525C254.992 219.444 254.787 219.403 254.551 219.403C254.274 219.403 254.044 219.452 253.858 219.55C253.673 219.648 253.524 219.782 253.413 219.954C253.302 220.126 253.221 220.323 253.171 220.546C253.123 220.765 253.1 220.997 253.1 221.244ZM256.644 220.728L256.017 220.92C256.02 220.62 256.069 220.332 256.164 220.055C256.261 219.779 256.401 219.533 256.583 219.317C256.769 219.102 256.996 218.931 257.266 218.807C257.535 218.678 257.844 218.614 258.191 218.614C258.484 218.614 258.744 218.653 258.97 218.731C259.199 218.808 259.391 218.928 259.546 219.09C259.704 219.248 259.824 219.452 259.905 219.701C259.986 219.951 260.026 220.248 260.026 220.591V224.186H259.086V220.581C259.086 220.274 259.037 220.037 258.939 219.868C258.845 219.696 258.71 219.577 258.535 219.509C258.363 219.439 258.157 219.403 257.918 219.403C257.712 219.403 257.53 219.439 257.372 219.509C257.214 219.58 257.08 219.678 256.973 219.803C256.865 219.924 256.782 220.064 256.725 220.222C256.671 220.381 256.644 220.549 256.644 220.728Z" fill="white"/>
<path d="M293.44 220.237V221.117H288.394V220.237H293.44ZM291.387 218.089V223.448H290.452V218.089H291.387ZM299.462 221.709V222.477H294.143V221.926L297.439 216.825H298.203L297.384 218.301L295.205 221.709H299.462ZM298.435 216.825V224.186H297.5V216.825H298.435ZM301.494 220.682L300.746 220.49L301.115 216.825H304.892V217.689H301.909L301.686 219.691C301.821 219.614 301.991 219.541 302.197 219.474C302.406 219.407 302.645 219.373 302.915 219.373C303.255 219.373 303.56 219.432 303.83 219.55C304.1 219.664 304.329 219.83 304.518 220.045C304.71 220.261 304.856 220.521 304.957 220.824C305.059 221.127 305.109 221.466 305.109 221.84C305.109 222.194 305.06 222.519 304.962 222.816C304.868 223.113 304.725 223.372 304.533 223.594C304.341 223.814 304.098 223.984 303.805 224.105C303.515 224.226 303.173 224.287 302.778 224.287C302.482 224.287 302.2 224.247 301.934 224.166C301.671 224.082 301.435 223.955 301.226 223.787C301.021 223.615 300.852 223.402 300.721 223.15C300.593 222.893 300.512 222.593 300.478 222.25H301.368C301.408 222.526 301.489 222.759 301.61 222.947C301.732 223.136 301.89 223.279 302.086 223.377C302.285 223.471 302.515 223.519 302.778 223.519C303.001 223.519 303.198 223.48 303.37 223.402C303.542 223.325 303.687 223.214 303.805 223.069C303.923 222.924 304.012 222.748 304.073 222.543C304.137 222.337 304.169 222.106 304.169 221.85C304.169 221.618 304.137 221.402 304.073 221.203C304.009 221.004 303.913 220.831 303.784 220.682C303.66 220.534 303.506 220.419 303.324 220.339C303.142 220.254 302.933 220.212 302.697 220.212C302.384 220.212 302.146 220.254 301.985 220.339C301.826 220.423 301.663 220.537 301.494 220.682ZM307.167 219.803V224.186H306.226V218.716H307.116L307.167 219.803ZM306.975 221.244L306.54 221.228C306.543 220.854 306.592 220.509 306.687 220.192C306.781 219.872 306.921 219.594 307.106 219.358C307.292 219.122 307.522 218.94 307.799 218.812C308.075 218.68 308.395 218.614 308.759 218.614C309.016 218.614 309.252 218.652 309.467 218.726C309.683 218.796 309.87 218.909 310.028 219.064C310.187 219.219 310.31 219.418 310.398 219.661C310.485 219.904 310.529 220.197 310.529 220.541V224.186H309.594V220.586C309.594 220.3 309.545 220.071 309.447 219.899C309.353 219.727 309.218 219.602 309.043 219.525C308.867 219.444 308.662 219.403 308.426 219.403C308.149 219.403 307.918 219.452 307.733 219.55C307.548 219.648 307.399 219.782 307.288 219.954C307.177 220.126 307.096 220.323 307.045 220.546C306.998 220.765 306.975 220.997 306.975 221.244ZM310.519 220.728L309.892 220.92C309.895 220.62 309.944 220.332 310.039 220.055C310.136 219.779 310.276 219.533 310.458 219.317C310.644 219.102 310.871 218.931 311.141 218.807C311.41 218.678 311.719 218.614 312.066 218.614C312.359 218.614 312.619 218.653 312.845 218.731C313.074 218.808 313.266 218.928 313.421 219.09C313.579 219.248 313.699 219.452 313.78 219.701C313.861 219.951 313.901 220.248 313.901 220.591V224.186H312.961V220.581C312.961 220.274 312.912 220.037 312.814 219.868C312.72 219.696 312.585 219.577 312.41 219.509C312.238 219.439 312.032 219.403 311.793 219.403C311.587 219.403 311.405 219.439 311.247 219.509C311.089 219.58 310.955 219.678 310.848 219.803C310.74 219.924 310.657 220.064 310.6 220.222C310.546 220.381 310.519 220.549 310.519 220.728Z" fill="white"/>
<defs>
<filter id="filter0_f_80_6543" x="217.314" y="-1.14441e-05" width="171.51" height="224.922" filterUnits="userSpaceOnUse" color-interpolation-filters="sRGB">
<feFlood flood-opacity="0" result="BackgroundImageFix"/>
<feBlend mode="normal" in="SourceGraphic" in2="BackgroundImageFix" result="shape"/>
<feGaussianBlur stdDeviation="10.843" result="effect1_foregroundBlur_80_6543"/>
</filter>
<filter id="filter1_f_80_6543" x="271" y="35.686" width="63" height="190" filterUnits="userSpaceOnUse" color-interpolation-filters="sRGB">
<feFlood flood-opacity="0" result="BackgroundImageFix"/>
<feBlend mode="normal" in="SourceGraphic" in2="BackgroundImageFix" result="shape"/>
<feGaussianBlur stdDeviation="8.5" result="effect1_foregroundBlur_80_6543"/>
</filter>
<linearGradient id="paint0_linear_80_6543" x1="305.157" y1="203.236" x2="305.157" y2="-31.6963" gradientUnits="userSpaceOnUse">
<stop stop-color="#7300FF"/>
<stop offset="1" stop-opacity="0"/>
</linearGradient>
<linearGradient id="paint1_linear_80_6543" x1="447.11" y1="28.2279" x2="440.541" y2="-8.91577" gradientUnits="userSpaceOnUse">
<stop stop-color="#432F5B" stop-opacity="0.25"/>
<stop offset="1" stop-color="#E9D8FF" stop-opacity="0.1"/>
</linearGradient>
</defs>
</svg>
