<svg width="467" height="274" viewBox="0 0 467 274" fill="none" xmlns="http://www.w3.org/2000/svg">
<rect x="0.546245" y="0.546306" width="465.092" height="272.092" rx="60.5462" fill="#070509" fill-opacity="0.5" stroke="url(#paint0_linear_80_6522)" stroke-width="1.09245"/>
<rect x="46.6976" y="129.019" width="373.79" height="20.3071" rx="10.1536" fill="#070509" fill-opacity="0.5" stroke="url(#paint1_linear_80_6522)" stroke-width="0.789695"/>
<rect x="47.0925" y="129.414" width="290.593" height="19.5174" rx="9.75872" fill="url(#paint2_linear_80_6522)"/>
<g filter="url(#filter0_f_80_6522)">
<rect x="47.0925" y="129.414" width="290.593" height="19.5174" rx="9.75872" fill="url(#paint3_linear_80_6522)"/>
</g>
<path d="M61.8018 49.4955C61.3437 48.6132 60.7075 47.9516 59.8931 47.5105C59.0788 47.0524 58.1372 46.8234 57.0683 46.8234C55.8977 46.8234 54.8543 47.0863 53.9381 47.6123C53.022 48.1382 52.301 48.8847 51.775 49.8517C51.266 50.8188 51.0116 51.9385 51.0116 53.211C51.0116 54.4834 51.266 55.6116 51.775 56.5956C52.301 57.5627 53.022 58.3092 53.9381 58.8351C54.8543 59.361 55.8977 59.624 57.0683 59.624C58.6461 59.624 59.9271 59.1829 60.9111 58.3007C61.8951 57.4185 62.4974 56.2224 62.7179 54.7124H56.0758V52.3966H65.8226V54.6615C65.636 56.0358 65.144 57.2997 64.3466 58.4534C63.5662 59.607 62.5398 60.5317 61.2673 61.2273C60.0119 61.9059 58.6122 62.2452 57.0683 62.2452C55.4057 62.2452 53.8872 61.8635 52.513 61.1C51.1388 60.3196 50.0445 59.2423 49.2302 57.8681C48.4328 56.4938 48.0341 54.9415 48.0341 53.211C48.0341 51.4805 48.4328 49.9281 49.2302 48.5539C50.0445 47.1796 51.1388 46.1108 52.513 45.3473C53.9042 44.5669 55.4226 44.1767 57.0683 44.1767C58.9515 44.1767 60.6226 44.6433 62.0817 45.5764C63.5577 46.4925 64.6266 47.7989 65.2882 49.4955H61.8018ZM67.717 55.0178C67.717 53.6097 68.0054 52.3627 68.5822 51.2769C69.176 50.1911 69.9734 49.3513 70.9744 48.7575C71.9923 48.1467 73.1121 47.8413 74.3336 47.8413C75.4364 47.8413 76.395 48.0619 77.2093 48.503C78.0406 48.9271 78.7023 49.4615 79.1943 50.1062V48.0703H82.1209V62.0925H79.1943V60.0057C78.7023 60.6674 78.0321 61.2188 77.1839 61.6599C76.3356 62.101 75.3685 62.3216 74.2827 62.3216C73.0782 62.3216 71.9754 62.0162 70.9744 61.4054C69.9734 60.7777 69.176 59.9124 68.5822 58.8097C68.0054 57.6899 67.717 56.426 67.717 55.0178ZM79.1943 55.0687C79.1943 54.1017 78.9907 53.2619 78.5835 52.5493C78.1933 51.8367 77.6759 51.2938 77.0312 50.9206C76.3865 50.5473 75.6909 50.3607 74.9444 50.3607C74.1979 50.3607 73.5023 50.5473 72.8576 50.9206C72.2129 51.2769 71.687 51.8113 71.2798 52.5239C70.8896 53.2194 70.6945 54.0508 70.6945 55.0178C70.6945 55.9849 70.8896 56.8331 71.2798 57.5627C71.687 58.2922 72.2129 58.8521 72.8576 59.2423C73.5193 59.6155 74.2149 59.8022 74.9444 59.8022C75.6909 59.8022 76.3865 59.6155 77.0312 59.2423C77.6759 58.869 78.1933 58.3261 78.5835 57.6136C78.9907 56.884 79.1943 56.0358 79.1943 55.0687ZM102.906 47.8413C104.008 47.8413 104.992 48.0703 105.858 48.5284C106.74 48.9865 107.427 49.6651 107.919 50.5643C108.428 51.4635 108.682 52.5493 108.682 53.8217V62.0925H105.807V54.2544C105.807 52.9989 105.493 52.0403 104.865 51.3787C104.237 50.7 103.381 50.3607 102.295 50.3607C101.209 50.3607 100.344 50.7 99.6991 51.3787C99.0714 52.0403 98.7575 52.9989 98.7575 54.2544V62.0925H95.8818V54.2544C95.8818 52.9989 95.568 52.0403 94.9402 51.3787C94.3125 50.7 93.4557 50.3607 92.3699 50.3607C91.2841 50.3607 90.4189 50.7 89.7742 51.3787C89.1464 52.0403 88.8326 52.9989 88.8326 54.2544V62.0925H85.9314V48.0703H88.8326V49.6736C89.3076 49.0968 89.9099 48.6472 90.6394 48.3248C91.3689 48.0025 92.1494 47.8413 92.9807 47.8413C94.1004 47.8413 95.1014 48.0788 95.9836 48.5539C96.8658 49.0289 97.5445 49.716 98.0195 50.6152C98.4437 49.7669 99.1053 49.0968 100.005 48.6048C100.904 48.0958 101.871 47.8413 102.906 47.8413ZM125.226 54.7379C125.226 55.2638 125.192 55.7389 125.124 56.163H114.41C114.495 57.2827 114.91 58.1819 115.657 58.8606C116.403 59.5392 117.32 59.8785 118.405 59.8785C119.966 59.8785 121.069 59.2253 121.714 57.919H124.844C124.42 59.2084 123.648 60.2687 122.528 61.1C121.425 61.9144 120.051 62.3216 118.405 62.3216C117.065 62.3216 115.861 62.0247 114.792 61.4309C113.74 60.8201 112.909 59.9718 112.298 58.886C111.704 57.7832 111.407 56.5108 111.407 55.0687C111.407 53.6266 111.695 52.3627 112.272 51.2769C112.866 50.1741 113.689 49.3258 114.741 48.732C115.81 48.1382 117.031 47.8413 118.405 47.8413C119.729 47.8413 120.908 48.1297 121.943 48.7066C122.978 49.2834 123.784 50.0978 124.36 51.1496C124.937 52.1845 125.226 53.3806 125.226 54.7379ZM122.197 53.8217C122.18 52.7529 121.799 51.8961 121.052 51.2514C120.306 50.6067 119.381 50.2844 118.278 50.2844C117.277 50.2844 116.42 50.6067 115.708 51.2514C114.995 51.8792 114.571 52.7359 114.435 53.8217H122.197ZM147.39 48.0703V62.0925H144.489V60.4384C144.031 61.0152 143.429 61.4733 142.682 61.8126C141.953 62.1349 141.172 62.2961 140.341 62.2961C139.238 62.2961 138.246 62.0671 137.363 61.609C136.498 61.1509 135.811 60.4723 135.302 59.5731C134.81 58.6739 134.564 57.5881 134.564 56.3157V48.0703H137.44V55.8831C137.44 57.1385 137.754 58.1056 138.381 58.7842C139.009 59.4459 139.866 59.7767 140.952 59.7767C142.038 59.7767 142.894 59.4459 143.522 58.7842C144.167 58.1056 144.489 57.1385 144.489 55.8831V48.0703H147.39ZM154.119 50.1317C154.611 49.487 155.281 48.9441 156.13 48.503C156.978 48.0619 157.936 47.8413 159.005 47.8413C160.227 47.8413 161.338 48.1467 162.339 48.7575C163.357 49.3513 164.154 50.1911 164.731 51.2769C165.308 52.3627 165.597 53.6097 165.597 55.0178C165.597 56.426 165.308 57.6899 164.731 58.8097C164.154 59.9124 163.357 60.7777 162.339 61.4054C161.338 62.0162 160.227 62.3216 159.005 62.3216C157.936 62.3216 156.986 62.1095 156.155 61.6854C155.324 61.2442 154.645 60.7013 154.119 60.0566V68.7601H151.218V48.0703H154.119V50.1317ZM162.644 55.0178C162.644 54.0508 162.441 53.2194 162.034 52.5239C161.643 51.8113 161.118 51.2769 160.456 50.9206C159.811 50.5473 159.116 50.3607 158.369 50.3607C157.64 50.3607 156.944 50.5473 156.282 50.9206C155.638 51.2938 155.112 51.8367 154.705 52.5493C154.314 53.2619 154.119 54.1017 154.119 55.0687C154.119 56.0358 154.314 56.884 154.705 57.6136C155.112 58.3261 155.638 58.869 156.282 59.2423C156.944 59.6155 157.64 59.8022 158.369 59.8022C159.116 59.8022 159.811 59.6155 160.456 59.2423C161.118 58.8521 161.643 58.2922 162.034 57.5627C162.441 56.8331 162.644 55.9849 162.644 55.0178ZM167.498 55.0178C167.498 53.6097 167.787 52.3627 168.364 51.2769C168.957 50.1911 169.755 49.3513 170.756 48.7575C171.774 48.1467 172.902 47.8413 174.14 47.8413C175.057 47.8413 175.956 48.0449 176.838 48.4521C177.737 48.8423 178.45 49.3682 178.976 50.0299V43.2606H181.902V62.0925H178.976V59.9803C178.501 60.6589 177.839 61.2188 176.991 61.6599C176.159 62.101 175.201 62.3216 174.115 62.3216C172.893 62.3216 171.774 62.0162 170.756 61.4054C169.755 60.7777 168.957 59.9124 168.364 58.8097C167.787 57.6899 167.498 56.426 167.498 55.0178ZM178.976 55.0687C178.976 54.1017 178.772 53.2619 178.365 52.5493C177.975 51.8367 177.457 51.2938 176.813 50.9206C176.168 50.5473 175.472 50.3607 174.726 50.3607C173.979 50.3607 173.284 50.5473 172.639 50.9206C171.994 51.2769 171.468 51.8113 171.061 52.5239C170.671 53.2194 170.476 54.0508 170.476 55.0178C170.476 55.9849 170.671 56.8331 171.061 57.5627C171.468 58.2922 171.994 58.8521 172.639 59.2423C173.301 59.6155 173.996 59.8022 174.726 59.8022C175.472 59.8022 176.168 59.6155 176.813 59.2423C177.457 58.869 177.975 58.3261 178.365 57.6136C178.772 56.884 178.976 56.0358 178.976 55.0687ZM184.746 55.0178C184.746 53.6097 185.034 52.3627 185.611 51.2769C186.205 50.1911 187.002 49.3513 188.003 48.7575C189.021 48.1467 190.141 47.8413 191.362 47.8413C192.465 47.8413 193.424 48.0619 194.238 48.503C195.069 48.9271 195.731 49.4615 196.223 50.1062V48.0703H199.15V62.0925H196.223V60.0057C195.731 60.6674 195.061 61.2188 194.213 61.6599C193.364 62.101 192.397 62.3216 191.312 62.3216C190.107 62.3216 189.004 62.0162 188.003 61.4054C187.002 60.7777 186.205 59.9124 185.611 58.8097C185.034 57.6899 184.746 56.426 184.746 55.0178ZM196.223 55.0687C196.223 54.1017 196.02 53.2619 195.612 52.5493C195.222 51.8367 194.705 51.2938 194.06 50.9206C193.415 50.5473 192.72 50.3607 191.973 50.3607C191.227 50.3607 190.531 50.5473 189.886 50.9206C189.242 51.2769 188.716 51.8113 188.309 52.5239C187.918 53.2194 187.723 54.0508 187.723 55.0178C187.723 55.9849 187.918 56.8331 188.309 57.5627C188.716 58.2922 189.242 58.8521 189.886 59.2423C190.548 59.6155 191.244 59.8022 191.973 59.8022C192.72 59.8022 193.415 59.6155 194.06 59.2423C194.705 58.869 195.222 58.3261 195.612 57.6136C196.02 56.884 196.223 56.0358 196.223 55.0687ZM206.345 50.4371V58.1989C206.345 58.7248 206.464 59.1066 206.701 59.3441C206.956 59.5646 207.38 59.6749 207.974 59.6749H209.755V62.0925H207.465C206.158 62.0925 205.157 61.7871 204.462 61.1764C203.766 60.5656 203.418 59.5731 203.418 58.1989V50.4371H201.764V48.0703H203.418V44.5839H206.345V48.0703H209.755V50.4371H206.345ZM225.28 54.7379C225.28 55.2638 225.247 55.7389 225.179 56.163H214.465C214.55 57.2827 214.965 58.1819 215.712 58.8606C216.458 59.5392 217.374 59.8785 218.46 59.8785C220.021 59.8785 221.124 59.2253 221.769 57.919H224.899C224.475 59.2084 223.703 60.2687 222.583 61.1C221.48 61.9144 220.106 62.3216 218.46 62.3216C217.12 62.3216 215.915 62.0247 214.847 61.4309C213.795 60.8201 212.963 59.9718 212.353 58.886C211.759 57.7832 211.462 56.5108 211.462 55.0687C211.462 53.6266 211.75 52.3627 212.327 51.2769C212.921 50.1741 213.744 49.3258 214.796 48.732C215.864 48.1382 217.086 47.8413 218.46 47.8413C219.784 47.8413 220.963 48.1297 221.998 48.7066C223.032 49.2834 223.838 50.0978 224.415 51.1496C224.992 52.1845 225.28 53.3806 225.28 54.7379ZM222.252 53.8217C222.235 52.7529 221.853 51.8961 221.107 51.2514C220.36 50.6067 219.436 50.2844 218.333 50.2844C217.332 50.2844 216.475 50.6067 215.763 51.2514C215.05 51.8792 214.626 52.7359 214.49 53.8217H222.252Z" fill="white"/>
<path d="M90.7256 86.7584L81.4731 108.093H77.6456L86.998 87.1578H74.6834V83.9294H90.7256V86.7584ZM109.616 87.0912H98.4662V93.7145C98.9321 93.0932 99.62 92.5717 100.53 92.1502C101.462 91.7286 102.449 91.5178 103.492 91.5178C105.356 91.5178 106.864 91.9172 108.018 92.716C109.194 93.5148 110.026 94.5243 110.514 95.7447C111.025 96.965 111.28 98.252 111.28 99.6055C111.28 101.247 110.958 102.712 110.315 103.999C109.693 105.264 108.75 106.262 107.486 106.994C106.243 107.726 104.712 108.093 102.893 108.093C100.474 108.093 98.5327 107.493 97.0683 106.295C95.6039 105.097 94.7274 103.511 94.439 101.536H98.1333C98.3774 102.579 98.921 103.411 99.7642 104.032C100.607 104.631 101.661 104.931 102.926 104.931C104.501 104.931 105.677 104.454 106.454 103.5C107.253 102.545 107.652 101.281 107.652 99.7053C107.652 98.1078 107.253 96.8874 106.454 96.0442C105.655 95.1789 104.479 94.7462 102.926 94.7462C101.839 94.7462 100.918 95.0236 100.164 95.5783C99.4314 96.1108 98.8988 96.843 98.566 97.7749H94.9715V83.763H109.616V87.0912Z" fill="white"/>
<path d="M114.631 89.6873C114.631 88.0675 115.097 86.8028 116.028 85.893C116.983 84.9611 118.203 84.4952 119.69 84.4952C121.176 84.4952 122.385 84.9611 123.317 85.893C124.271 86.8028 124.748 88.0675 124.748 89.6873C124.748 91.307 124.271 92.5828 123.317 93.5148C122.385 94.4467 121.176 94.9126 119.69 94.9126C118.203 94.9126 116.983 94.4467 116.028 93.5148C115.097 92.5828 114.631 91.307 114.631 89.6873ZM134.933 84.9278L121.653 108.093H117.926L131.205 84.9278H134.933ZM119.69 86.7917C118.292 86.7917 117.593 87.7569 117.593 89.6873C117.593 91.6398 118.292 92.6161 119.69 92.6161C120.355 92.6161 120.866 92.3831 121.221 91.9172C121.598 91.429 121.786 90.6857 121.786 89.6873C121.786 87.7569 121.087 86.7917 119.69 86.7917ZM128.177 103.3C128.177 101.68 128.643 100.415 129.574 99.5056C130.529 98.5737 131.749 98.1078 133.236 98.1078C134.7 98.1078 135.898 98.5737 136.83 99.5056C137.784 100.415 138.261 101.68 138.261 103.3C138.261 104.92 137.784 106.195 136.83 107.127C135.898 108.059 134.7 108.525 133.236 108.525C131.749 108.525 130.529 108.059 129.574 107.127C128.643 106.195 128.177 104.92 128.177 103.3ZM133.202 100.404C131.804 100.404 131.105 101.369 131.105 103.3C131.105 105.23 131.804 106.195 133.202 106.195C134.6 106.195 135.299 105.23 135.299 103.3C135.299 101.369 134.6 100.404 133.202 100.404Z" fill="white" fill-opacity="0.4"/>
<rect x="46.9679" y="207.92" width="100.005" height="21.2122" rx="10.6061" fill="#7300FF" fill-opacity="0.4" stroke="url(#paint4_linear_80_6522)" stroke-width="0.249051"/>
<path d="M62.6705 214.974L59.9972 222.093H58.6451L55.9615 214.974H57.2111L59.3212 220.894L61.4414 214.974H62.6705ZM69.4342 219.132C69.4342 219.344 69.4206 219.535 69.3933 219.706H65.081C65.1152 220.157 65.2825 220.519 65.5829 220.792C65.8834 221.065 66.2521 221.201 66.6892 221.201C67.3174 221.201 67.7612 220.939 68.0207 220.413H69.2806C69.1099 220.932 68.7992 221.358 68.3485 221.693C67.9046 222.021 67.3515 222.185 66.6892 222.185C66.1497 222.185 65.6649 222.065 65.2347 221.826C64.8113 221.58 64.4767 221.239 64.2309 220.802C63.9919 220.358 63.8724 219.846 63.8724 219.266C63.8724 218.685 63.9885 218.176 64.2206 217.739C64.4596 217.295 64.7908 216.954 65.2142 216.715C65.6444 216.476 66.136 216.357 66.6892 216.357C67.2218 216.357 67.6964 216.473 68.1129 216.705C68.5294 216.937 68.8538 217.265 69.086 217.688C69.3181 218.105 69.4342 218.586 69.4342 219.132ZM68.2153 218.764C68.2085 218.333 68.0549 217.989 67.7544 217.729C67.454 217.47 67.0818 217.34 66.6379 217.34C66.2351 217.34 65.8902 217.47 65.6034 217.729C65.3166 217.982 65.1459 218.327 65.0913 218.764H68.2153ZM72.3656 217.268C72.5363 216.981 72.7616 216.759 73.0416 216.602C73.3284 216.439 73.6664 216.357 74.0556 216.357V217.565H73.7586C73.3011 217.565 72.9528 217.681 72.7138 217.913C72.4817 218.146 72.3656 218.549 72.3656 219.122V222.093H71.1979V216.449H72.3656V217.268ZM77.7921 222.185C77.3482 222.185 76.9488 222.106 76.5937 221.949C76.2454 221.785 75.9689 221.567 75.764 221.294C75.5592 221.014 75.4499 220.703 75.4363 220.361H76.6449C76.6654 220.6 76.7781 220.802 76.9829 220.966C77.1946 221.123 77.4575 221.201 77.7716 221.201C78.0994 221.201 78.352 221.14 78.5296 221.017C78.7139 220.887 78.8061 220.723 78.8061 220.525C78.8061 220.314 78.7037 220.157 78.4988 220.054C78.3008 219.952 77.9833 219.839 77.5463 219.716C77.1229 219.6 76.7781 219.487 76.5117 219.378C76.2454 219.269 76.0133 219.102 75.8152 218.876C75.624 218.651 75.5284 218.354 75.5284 217.985C75.5284 217.685 75.6172 217.412 75.7948 217.166C75.9723 216.913 76.2249 216.715 76.5527 216.572C76.8873 216.428 77.2697 216.357 77.6999 216.357C78.3418 216.357 78.8573 216.52 79.2466 216.848C79.6426 217.169 79.8543 217.61 79.8816 218.17H78.7139C78.6935 217.917 78.591 217.715 78.4067 217.565C78.2223 217.415 77.9731 217.34 77.6589 217.34C77.3517 217.34 77.1161 217.398 76.9522 217.514C76.7883 217.63 76.7064 217.784 76.7064 217.975C76.7064 218.125 76.761 218.251 76.8702 218.354C76.9795 218.456 77.1127 218.538 77.2697 218.6C77.4268 218.654 77.6589 218.726 77.9662 218.815C78.3759 218.924 78.7105 219.037 78.97 219.153C79.2363 219.262 79.4651 219.426 79.6563 219.645C79.8475 219.863 79.9465 220.153 79.9533 220.515C79.9533 220.836 79.8646 221.123 79.687 221.376C79.5095 221.628 79.2568 221.826 78.929 221.97C78.6081 222.113 78.2291 222.185 77.7921 222.185ZM82.4237 215.701C82.212 215.701 82.0344 215.629 81.891 215.486C81.7476 215.343 81.6759 215.165 81.6759 214.953C81.6759 214.742 81.7476 214.564 81.891 214.421C82.0344 214.277 82.212 214.206 82.4237 214.206C82.6285 214.206 82.8027 214.277 82.9461 214.421C83.0895 214.564 83.1612 214.742 83.1612 214.953C83.1612 215.165 83.0895 215.343 82.9461 215.486C82.8027 215.629 82.6285 215.701 82.4237 215.701ZM82.9973 216.449V222.093H81.8296V216.449H82.9973ZM87.5929 222.185C87.0603 222.185 86.5789 222.065 86.1487 221.826C85.7185 221.58 85.3805 221.239 85.1347 220.802C84.8888 220.358 84.7659 219.846 84.7659 219.266C84.7659 218.692 84.8922 218.183 85.1449 217.739C85.3975 217.295 85.7424 216.954 86.1794 216.715C86.6164 216.476 87.1047 216.357 87.6441 216.357C88.1836 216.357 88.6718 216.476 89.1089 216.715C89.5459 216.954 89.8907 217.295 90.1434 217.739C90.396 218.183 90.5224 218.692 90.5224 219.266C90.5224 219.839 90.3926 220.348 90.1331 220.792C89.8736 221.236 89.5186 221.58 89.0679 221.826C88.624 222.065 88.1324 222.185 87.5929 222.185ZM87.5929 221.171C87.8934 221.171 88.1733 221.099 88.4328 220.956C88.6991 220.812 88.9142 220.597 89.0781 220.31C89.242 220.023 89.3239 219.675 89.3239 219.266C89.3239 218.856 89.2454 218.511 89.0884 218.231C88.9313 217.944 88.723 217.729 88.4636 217.586C88.2041 217.442 87.9241 217.371 87.6236 217.371C87.3232 217.371 87.0432 217.442 86.7837 217.586C86.5311 217.729 86.3296 217.944 86.1794 218.231C86.0292 218.511 85.9541 218.856 85.9541 219.266C85.9541 219.873 86.1077 220.344 86.415 220.679C86.7291 221.007 87.1218 221.171 87.5929 221.171ZM95.1387 216.357C95.5826 216.357 95.9786 216.449 96.3269 216.633C96.682 216.817 96.9585 217.091 97.1566 217.453C97.3546 217.814 97.4536 218.251 97.4536 218.764V222.093H96.2962V218.938C96.2962 218.432 96.1698 218.047 95.9172 217.78C95.6645 217.507 95.3197 217.371 94.8827 217.371C94.4456 217.371 94.0974 217.507 93.8379 217.78C93.5852 218.047 93.4589 218.432 93.4589 218.938V222.093H92.2912V216.449H93.4589V217.094C93.6501 216.862 93.8925 216.681 94.1861 216.551C94.4866 216.421 94.8041 216.357 95.1387 216.357ZM102.526 215.691V214.626H104.656V222.093H103.478V215.691H102.526ZM107.5 222.164C107.288 222.164 107.11 222.093 106.967 221.949C106.824 221.806 106.752 221.628 106.752 221.417C106.752 221.205 106.824 221.027 106.967 220.884C107.11 220.74 107.288 220.669 107.5 220.669C107.704 220.669 107.879 220.74 108.022 220.884C108.165 221.027 108.237 221.205 108.237 221.417C108.237 221.628 108.165 221.806 108.022 221.949C107.879 222.093 107.704 222.164 107.5 222.164ZM109.817 220.536V219.655L113.258 214.718H114.672V219.522H115.624V220.536H114.672V222.093H113.525V220.536H109.817ZM113.576 215.906L111.158 219.522H113.576V215.906ZM117.063 220.536V219.655L120.505 214.718H121.918V219.522H122.871V220.536H121.918V222.093H120.771V220.536H117.063ZM120.822 215.906L118.405 219.522H120.822V215.906ZM124.432 216.469C124.473 215.834 124.716 215.339 125.16 214.984C125.61 214.629 126.184 214.451 126.88 214.451C127.358 214.451 127.771 214.537 128.12 214.707C128.468 214.878 128.731 215.11 128.908 215.404C129.086 215.698 129.175 216.029 129.175 216.398C129.175 216.821 129.062 217.183 128.837 217.483C128.611 217.784 128.342 217.985 128.028 218.088V218.129C128.43 218.251 128.745 218.477 128.97 218.805C129.195 219.126 129.308 219.539 129.308 220.044C129.308 220.447 129.216 220.805 129.031 221.119C128.847 221.434 128.574 221.683 128.212 221.867C127.85 222.045 127.416 222.134 126.911 222.134C126.174 222.134 125.566 221.946 125.088 221.57C124.617 221.188 124.364 220.641 124.33 219.931H125.457C125.484 220.293 125.624 220.59 125.877 220.822C126.129 221.048 126.471 221.16 126.901 221.16C127.317 221.16 127.638 221.048 127.864 220.822C128.089 220.59 128.202 220.293 128.202 219.931C128.202 219.453 128.048 219.115 127.741 218.917C127.44 218.712 126.976 218.61 126.348 218.61H126.081V217.647H126.358C126.911 217.64 127.331 217.548 127.618 217.371C127.911 217.193 128.058 216.913 128.058 216.531C128.058 216.203 127.952 215.943 127.741 215.752C127.529 215.554 127.229 215.455 126.839 215.455C126.457 215.455 126.16 215.554 125.948 215.752C125.737 215.943 125.61 216.182 125.569 216.469H124.432ZM131.774 222.164C131.562 222.164 131.385 222.093 131.241 221.949C131.098 221.806 131.026 221.628 131.026 221.417C131.026 221.205 131.098 221.027 131.241 220.884C131.385 220.74 131.562 220.669 131.774 220.669C131.979 220.669 132.153 220.74 132.296 220.884C132.44 221.027 132.511 221.205 132.511 221.417C132.511 221.628 132.44 221.806 132.296 221.949C132.153 222.093 131.979 222.164 131.774 222.164ZM134.88 220.505C135.535 219.938 136.051 219.474 136.426 219.112C136.809 218.743 137.126 218.361 137.379 217.965C137.631 217.569 137.758 217.173 137.758 216.777C137.758 216.367 137.659 216.046 137.461 215.814C137.27 215.582 136.966 215.465 136.549 215.465C136.146 215.465 135.832 215.595 135.607 215.855C135.388 216.107 135.272 216.449 135.259 216.879H134.132C134.152 216.101 134.384 215.506 134.828 215.097C135.279 214.68 135.849 214.472 136.539 214.472C137.283 214.472 137.864 214.677 138.28 215.086C138.704 215.496 138.915 216.042 138.915 216.725C138.915 217.217 138.789 217.692 138.536 218.149C138.29 218.6 137.993 219.006 137.645 219.368C137.304 219.723 136.867 220.136 136.334 220.607L135.873 221.017H139.12V221.99H134.142V221.14L134.88 220.505Z" fill="white"/>
<g filter="url(#filter1_f_80_6522)" style="mix-blend-mode:plus-lighter">
<path d="M47.8153 149.002L47.8153 129.539L229.365 75.1991L229.365 203.337L47.8153 149.002Z" fill="url(#paint5_linear_80_6522)"/>
</g>
<rect x="260.7" y="190.497" width="161.2" height="49.155" rx="24.5775" fill="#070509" fill-opacity="0.5" stroke="url(#paint6_linear_80_6522)" stroke-width="3.61434"/>
<path d="M302.74 209.255V220.87H300.834V212.915L297.292 220.87H295.971L292.412 212.915V220.87H290.507V209.255H292.562L296.64 218.363L300.701 209.255H302.74ZM309.238 221.02C308.369 221.02 307.583 220.825 306.881 220.435C306.179 220.034 305.628 219.477 305.227 218.764C304.826 218.04 304.625 217.204 304.625 216.257C304.625 215.321 304.831 214.491 305.244 213.767C305.656 213.043 306.218 212.486 306.931 212.096C307.645 211.706 308.441 211.511 309.321 211.511C310.201 211.511 310.998 211.706 311.711 212.096C312.424 212.486 312.987 213.043 313.399 213.767C313.811 214.491 314.017 215.321 314.017 216.257C314.017 217.193 313.806 218.023 313.382 218.747C312.959 219.471 312.379 220.034 311.644 220.435C310.92 220.825 310.118 221.02 309.238 221.02ZM309.238 219.366C309.728 219.366 310.185 219.249 310.608 219.015C311.043 218.781 311.394 218.43 311.661 217.962C311.928 217.494 312.062 216.926 312.062 216.257C312.062 215.589 311.934 215.026 311.678 214.569C311.421 214.101 311.082 213.75 310.658 213.516C310.235 213.283 309.778 213.166 309.288 213.166C308.798 213.166 308.341 213.283 307.917 213.516C307.505 213.75 307.177 214.101 306.931 214.569C306.686 215.026 306.564 215.589 306.564 216.257C306.564 217.249 306.815 218.018 307.316 218.563C307.828 219.098 308.469 219.366 309.238 219.366ZM317.806 212.998C318.084 212.531 318.452 212.168 318.909 211.912C319.377 211.645 319.928 211.511 320.563 211.511V213.483H320.078C319.332 213.483 318.764 213.672 318.374 214.051C317.995 214.43 317.806 215.087 317.806 216.023V220.87H315.901V211.662H317.806V212.998ZM330.754 216.04C330.754 216.385 330.731 216.697 330.687 216.976H323.651C323.707 217.711 323.98 218.302 324.47 218.747C324.96 219.193 325.562 219.416 326.275 219.416C327.3 219.416 328.024 218.987 328.447 218.129H330.503C330.225 218.976 329.718 219.672 328.982 220.218C328.258 220.753 327.356 221.02 326.275 221.02C325.395 221.02 324.604 220.825 323.902 220.435C323.211 220.034 322.665 219.477 322.264 218.764C321.874 218.04 321.679 217.204 321.679 216.257C321.679 215.31 321.869 214.48 322.247 213.767C322.637 213.043 323.178 212.486 323.869 212.096C324.57 211.706 325.373 211.511 326.275 211.511C327.144 211.511 327.918 211.7 328.598 212.079C329.278 212.458 329.807 212.993 330.186 213.684C330.564 214.363 330.754 215.149 330.754 216.04ZM328.765 215.438C328.754 214.736 328.503 214.174 328.013 213.75C327.523 213.327 326.916 213.115 326.191 213.115C325.534 213.115 324.971 213.327 324.504 213.75C324.036 214.163 323.757 214.725 323.668 215.438H328.765ZM345.309 211.662V220.87H343.404V219.783C343.103 220.162 342.707 220.463 342.217 220.686C341.738 220.897 341.226 221.003 340.68 221.003C339.955 221.003 339.304 220.853 338.724 220.552C338.156 220.251 337.705 219.806 337.371 219.215C337.048 218.625 336.886 217.912 336.886 217.076V211.662H338.775V216.792C338.775 217.616 338.981 218.251 339.393 218.697C339.805 219.132 340.368 219.349 341.081 219.349C341.794 219.349 342.356 219.132 342.769 218.697C343.192 218.251 343.404 217.616 343.404 216.792V211.662H345.309ZM349.728 213.015C350.051 212.592 350.491 212.235 351.048 211.946C351.605 211.656 352.234 211.511 352.936 211.511C353.738 211.511 354.468 211.712 355.125 212.113C355.794 212.503 356.318 213.054 356.696 213.767C357.075 214.48 357.265 215.299 357.265 216.224C357.265 217.148 357.075 217.979 356.696 218.714C356.318 219.438 355.794 220.006 355.125 220.418C354.468 220.819 353.738 221.02 352.936 221.02C352.234 221.02 351.61 220.881 351.065 220.602C350.519 220.313 350.073 219.956 349.728 219.533V225.248H347.822V211.662H349.728V213.015ZM355.326 216.224C355.326 215.589 355.192 215.043 354.925 214.586C354.669 214.118 354.323 213.767 353.889 213.533C353.465 213.288 353.009 213.166 352.518 213.166C352.039 213.166 351.583 213.288 351.148 213.533C350.725 213.778 350.379 214.135 350.112 214.603C349.856 215.071 349.728 215.622 349.728 216.257C349.728 216.892 349.856 217.449 350.112 217.928C350.379 218.396 350.725 218.753 351.148 218.998C351.583 219.243 352.039 219.366 352.518 219.366C353.009 219.366 353.465 219.243 353.889 218.998C354.323 218.742 354.669 218.374 354.925 217.895C355.192 217.416 355.326 216.859 355.326 216.224ZM358.513 216.224C358.513 215.299 358.703 214.48 359.082 213.767C359.472 213.054 359.995 212.503 360.653 212.113C361.321 211.712 362.062 211.511 362.875 211.511C363.477 211.511 364.067 211.645 364.647 211.912C365.237 212.168 365.705 212.514 366.05 212.948V208.503H367.972V220.87H366.05V219.483C365.738 219.928 365.304 220.296 364.747 220.586C364.201 220.875 363.572 221.02 362.859 221.02C362.056 221.02 361.321 220.819 360.653 220.418C359.995 220.006 359.472 219.438 359.082 218.714C358.703 217.979 358.513 217.148 358.513 216.224ZM366.05 216.257C366.05 215.622 365.917 215.071 365.649 214.603C365.393 214.135 365.053 213.778 364.63 213.533C364.207 213.288 363.75 213.166 363.26 213.166C362.769 213.166 362.313 213.288 361.889 213.533C361.466 213.767 361.12 214.118 360.853 214.586C360.597 215.043 360.469 215.589 360.469 216.224C360.469 216.859 360.597 217.416 360.853 217.895C361.12 218.374 361.466 218.742 361.889 218.998C362.324 219.243 362.781 219.366 363.26 219.366C363.75 219.366 364.207 219.243 364.63 218.998C365.053 218.753 365.393 218.396 365.649 217.928C365.917 217.449 366.05 216.892 366.05 216.257ZM369.84 216.224C369.84 215.299 370.029 214.48 370.408 213.767C370.798 213.054 371.321 212.503 371.979 212.113C372.647 211.712 373.382 211.511 374.185 211.511C374.909 211.511 375.538 211.656 376.073 211.946C376.619 212.224 377.053 212.575 377.377 212.998V211.662H379.298V220.87H377.377V219.499C377.053 219.934 376.613 220.296 376.056 220.586C375.499 220.875 374.864 221.02 374.151 221.02C373.36 221.02 372.636 220.819 371.979 220.418C371.321 220.006 370.798 219.438 370.408 218.714C370.029 217.979 369.84 217.148 369.84 216.224ZM377.377 216.257C377.377 215.622 377.243 215.071 376.975 214.603C376.719 214.135 376.379 213.778 375.956 213.533C375.533 213.288 375.076 213.166 374.586 213.166C374.095 213.166 373.639 213.288 373.215 213.533C372.792 213.767 372.447 214.118 372.179 214.586C371.923 215.043 371.795 215.589 371.795 216.224C371.795 216.859 371.923 217.416 372.179 217.895C372.447 218.374 372.792 218.742 373.215 218.998C373.65 219.243 374.107 219.366 374.586 219.366C375.076 219.366 375.533 219.243 375.956 218.998C376.379 218.753 376.719 218.396 376.975 217.928C377.243 217.449 377.377 216.892 377.377 216.257ZM384.023 213.216V218.313C384.023 218.658 384.101 218.909 384.257 219.065C384.424 219.21 384.703 219.282 385.093 219.282H386.263V220.87H384.759C383.901 220.87 383.243 220.669 382.787 220.268C382.33 219.867 382.101 219.215 382.101 218.313V213.216H381.015V211.662H382.101V209.372H384.023V211.662H386.263V213.216H384.023ZM396.458 216.04C396.458 216.385 396.436 216.697 396.391 216.976H389.355C389.411 217.711 389.684 218.302 390.174 218.747C390.665 219.193 391.266 219.416 391.979 219.416C393.004 219.416 393.728 218.987 394.152 218.129H396.207C395.929 218.976 395.422 219.672 394.687 220.218C393.962 220.753 393.06 221.02 391.979 221.02C391.099 221.02 390.308 220.825 389.606 220.435C388.915 220.034 388.37 219.477 387.968 218.764C387.578 218.04 387.384 217.204 387.384 216.257C387.384 215.31 387.573 214.48 387.952 213.767C388.342 213.043 388.882 212.486 389.573 212.096C390.275 211.706 391.077 211.511 391.979 211.511C392.848 211.511 393.623 211.7 394.302 212.079C394.982 212.458 395.511 212.993 395.89 213.684C396.269 214.363 396.458 215.149 396.458 216.04ZM394.469 215.438C394.458 214.736 394.207 214.174 393.717 213.75C393.227 213.327 392.62 213.115 391.896 213.115C391.238 213.115 390.676 213.327 390.208 213.75C389.74 214.163 389.461 214.725 389.372 215.438H394.469Z" fill="white"/>
<path d="M58.494 85.5231C58.494 85.1588 58.7893 84.8635 59.1536 84.8635C59.5179 84.8635 59.8132 85.1588 59.8132 85.5231V90.9883C59.8132 91.3526 59.5179 91.6479 59.1536 91.6479C58.7893 91.6479 58.494 91.3526 58.494 90.9883V85.5231Z" fill="#D9D9D9"/>
<path d="M58.494 102.861C58.494 102.497 58.7893 102.201 59.1536 102.201C59.5179 102.201 59.8132 102.497 59.8132 102.861V108.326C59.8132 108.69 59.5179 108.986 59.1536 108.986C58.7893 108.986 58.494 108.69 58.494 108.326V102.861Z" fill="#D9D9D9"/>
<path d="M70.5551 96.2651C70.9194 96.2651 71.2147 96.5604 71.2147 96.9246C71.2147 97.2889 70.9194 97.5842 70.5551 97.5842H65.0899C64.7256 97.5842 64.4303 97.2889 64.4303 96.9246C64.4303 96.5604 64.7256 96.2651 65.0899 96.2651H70.5551Z" fill="#D9D9D9"/>
<path d="M53.2173 96.2651C53.5815 96.2651 53.8768 96.5604 53.8768 96.9246C53.8768 97.2889 53.5815 97.5842 53.2173 97.5842H47.7521C47.3878 97.5842 47.0925 97.2889 47.0925 96.9246C47.0925 96.5604 47.3878 96.2651 47.7521 96.2651H53.2173Z" fill="#D9D9D9"/>
<path d="M51.5579 105.453C51.3003 105.711 50.8827 105.711 50.6251 105.453C50.3675 105.196 50.3675 104.778 50.6251 104.52L54.4896 100.656C54.7472 100.398 55.1648 100.398 55.4224 100.656C55.68 100.913 55.68 101.331 55.4224 101.589L51.5579 105.453Z" fill="#D9D9D9"/>
<path d="M63.8176 93.1934C63.56 93.451 63.1424 93.451 62.8848 93.1934C62.6272 92.9358 62.6272 92.5182 62.8848 92.2606L66.7493 88.3962C67.0069 88.1386 67.4245 88.1386 67.6821 88.3962C67.9397 88.6537 67.9397 89.0714 67.6821 89.329L63.8176 93.1934Z" fill="#D9D9D9"/>
<path d="M67.6821 104.52C67.9397 104.778 67.9397 105.196 67.6821 105.453C67.4245 105.711 67.0069 105.711 66.7493 105.453L62.8848 101.589C62.6272 101.331 62.6272 100.913 62.8848 100.656C63.1424 100.398 63.56 100.398 63.8176 100.656L67.6821 104.52Z" fill="#D9D9D9"/>
<path d="M55.4224 92.2606C55.68 92.5182 55.68 92.9359 55.4224 93.1934C55.1648 93.451 54.7471 93.451 54.4896 93.1934L50.6251 89.329C50.3675 89.0714 50.3675 88.6537 50.6251 88.3962C50.8827 88.1386 51.3003 88.1386 51.5579 88.3962L55.4224 92.2606Z" fill="#D9D9D9"/>
<defs>
<filter id="filter0_f_80_6522" x="29.7436" y="112.065" width="325.291" height="54.215" filterUnits="userSpaceOnUse" color-interpolation-filters="sRGB">
<feFlood flood-opacity="0" result="BackgroundImageFix"/>
<feBlend mode="normal" in="SourceGraphic" in2="BackgroundImageFix" result="shape"/>
<feGaussianBlur stdDeviation="8.67442" result="effect1_foregroundBlur_80_6522"/>
</filter>
<filter id="filter1_f_80_6522" x="26.1293" y="53.5132" width="224.922" height="171.51" filterUnits="userSpaceOnUse" color-interpolation-filters="sRGB">
<feFlood flood-opacity="0" result="BackgroundImageFix"/>
<feBlend mode="normal" in="SourceGraphic" in2="BackgroundImageFix" result="shape"/>
<feGaussianBlur stdDeviation="10.843" result="effect1_foregroundBlur_80_6522"/>
</filter>
<linearGradient id="paint0_linear_80_6522" x1="465.092" y1="240.549" x2="346.645" y2="-90.8645" gradientUnits="userSpaceOnUse">
<stop stop-color="#432F5B" stop-opacity="0.25"/>
<stop offset="1" stop-color="#E9D8FF" stop-opacity="0.1"/>
</linearGradient>
<linearGradient id="paint1_linear_80_6522" x1="420.092" y1="146.66" x2="419.231" y2="119.77" gradientUnits="userSpaceOnUse">
<stop stop-color="#432F5B" stop-opacity="0.25"/>
<stop offset="1" stop-color="#E9D8FF" stop-opacity="0.1"/>
</linearGradient>
<linearGradient id="paint2_linear_80_6522" x1="47.0925" y1="139.173" x2="411.932" y2="114.229" gradientUnits="userSpaceOnUse">
<stop stop-color="#9A35FF"/>
<stop offset="1" stop-color="#7F00FF"/>
</linearGradient>
<linearGradient id="paint3_linear_80_6522" x1="47.0925" y1="139.173" x2="411.932" y2="114.229" gradientUnits="userSpaceOnUse">
<stop stop-color="#9A35FF"/>
<stop offset="1" stop-color="#7F00FF"/>
</linearGradient>
<linearGradient id="paint4_linear_80_6522" x1="47.0925" y1="218.526" x2="146.848" y2="218.526" gradientUnits="userSpaceOnUse">
<stop stop-color="#3600A6" stop-opacity="0.5"/>
<stop offset="1" stop-color="#6E00E0"/>
</linearGradient>
<linearGradient id="paint5_linear_80_6522" x1="47.8153" y1="141.356" x2="282.747" y2="141.356" gradientUnits="userSpaceOnUse">
<stop stop-color="#7300FF"/>
<stop offset="1" stop-opacity="0"/>
</linearGradient>
<linearGradient id="paint6_linear_80_6522" x1="420.092" y1="232.544" x2="409.322" y2="171.641" gradientUnits="userSpaceOnUse">
<stop stop-color="#432F5B" stop-opacity="0.25"/>
<stop offset="1" stop-color="#E9D8FF" stop-opacity="0.1"/>
</linearGradient>
</defs>
</svg>
